<?xml version="1.0" encoding="UTF-8"?>
<svg width="107px" height="92px" viewBox="0 0 107 92" version="1.1" xmlns="http://www.w3.org/2000/svg" xmlns:xlink="http://www.w3.org/1999/xlink">
    <!-- Generator: Sketch 53.2 (72643) - https://sketchapp.com -->
    <title>img-choose-your-plan</title>
    <desc>Created with Sketch.</desc>
    <defs>
        <linearGradient x1="-54.0736349%" y1="50%" x2="114.171069%" y2="50%" id="linearGradient-1">
            <stop stop-color="#FB5960" offset="0%"></stop>
            <stop stop-color="#E74FA8" offset="100%"></stop>
        </linearGradient>
        <polygon id="path-2" points="2.60548702e-15 71.6786717 2.60548702e-15 0.000137741955 42.2742606 0.000137741955 42.2742606 71.6786717"></polygon>
        <linearGradient x1="-54.0736349%" y1="50%" x2="114.171069%" y2="50%" id="linearGradient-4">
            <stop stop-color="#FB5960" offset="0%"></stop>
            <stop stop-color="#E74FA8" offset="100%"></stop>
        </linearGradient>
    </defs>
    <g id="Page-1" stroke="none" stroke-width="1" fill="none" fill-rule="evenodd">
        <g id="Plan-/-Lifetime" transform="translate(-568.000000, -227.000000)">
            <g id="img-choose-your-plan" transform="translate(562.000000, 209.473507)">
                <g id="Page-1" transform="translate(76.831388, 41.000000) rotate(46.000000) translate(-76.831388, -41.000000) translate(55.331388, 5.000000)">
                    <mask id="mask-3" fill="white">
                        <use xlink:href="#path-2"></use>
                    </mask>
                    <g id="Clip-2"></g>
                    <path d="M23.5569329,14.5868631 C22.4633468,15.3522318 21.3960984,16.1562497 20.3591955,17.0006734 C21.697264,15.8095792 23.1137729,14.7215492 24.6001339,13.7477097 C24.2485832,14.0217668 23.9010404,14.3010942 23.5569329,14.5868631 M15.4838626,19.9526428 C20.3111006,14.1781198 26.6441666,9.74518822 33.8297718,7.87187934 C33.5200178,8.03994425 33.2108364,8.20918034 32.9022275,8.37958762 C26.0767615,10.3395641 20.147349,14.5183488 15.4838626,19.9526428 M10.0869292,30.8786188 C10.3835143,30.2584768 10.6915506,29.6436052 11.015046,29.0357607 C11.7725405,27.9652984 12.5712591,26.9270438 13.4008959,25.9157264 C12.23574,27.5337171 11.1312753,29.1938705 10.0869292,30.8786188 M39.5021056,8.28647849 C39.6011582,8.32102842 39.7007833,8.35616394 39.7998359,8.39129946 C39.5490554,8.5716618 39.3040005,8.75846566 39.0566554,8.94292715 C39.2089558,8.72684369 39.3555307,8.50666109 39.5021056,8.28647849 M2.06653423,55.6380351 C2.09287191,59.7008726 2.87727662,63.7186194 4.65163441,67.482805 C4.66423069,67.556004 4.67739953,67.6286174 4.69114093,67.7018164 C2.58985241,63.9311893 1.89304911,59.8285316 2.06653423,55.6380351 M41.7184783,7.3899371 C41.6280142,7.35772954 41.5369774,7.32552198 41.4465132,7.29331442 C41.95609,7.02979801 42.0207891,6.08640926 41.3153974,5.81820811 C41.1573713,5.75847772 40.9987727,5.69991852 40.8407467,5.63960254 C40.7187918,5.13950695 40.0780992,4.85139568 39.6246331,5.18225517 C36.9943008,4.18850551 34.3616783,3.20061176 31.7273381,2.21681716 C30.8324297,1.84203827 29.9369487,1.46667378 29.0420403,1.09130929 C28.901191,1.0321645 28.7677849,1.02982213 28.6469751,1.06612884 C27.7423332,0.728827832 26.8371187,0.390941235 25.9319042,0.0524690453 C25.3467498,-0.166542371 24.9860381,0.341751505 25.0221093,0.837747949 C24.9236293,0.824279332 24.8262944,0.80905394 24.7278144,0.797342099 C24.7272418,0.797342099 24.7272418,0.797342099 24.7272418,0.797342099 L24.7272418,0.797342099 C24.6591074,0.789143811 24.5926907,0.776260786 24.5245562,0.769233682 C24.2136571,0.737611713 24.0063911,0.873469062 23.8953148,1.0760839 C23.8752753,1.06964239 23.8552357,1.06320088 23.8346236,1.05734496 C22.8607022,0.767476906 22.4782333,2.26425012 23.419519,2.59745198 C25.3627814,3.28435142 27.3054713,3.97183646 29.2481612,4.6587359 C29.4393956,4.85490923 29.511538,4.8718914 30.0548957,5.1436061 C30.2260906,5.22968813 30.3864069,5.19396701 30.4997734,5.10202906 C31.6866865,5.52189854 32.8735996,5.94118243 34.0605127,6.36163751 C23.341651,8.96400846 14.3645114,16.9245464 9.16511054,26.8450609 C7.81501835,29.4210802 6.72773037,32.095479 5.87175589,34.8378064 C0.213735968,45.7573409 -2.48816608,59.5615017 2.98205476,70.8411752 C3.17099896,71.2300083 3.84661761,70.9506809 3.67828551,70.5407665 C2.8761315,68.5889883 2.28983192,66.5839212 1.89247655,64.5472321 C2.66084962,66.9411323 3.84375482,69.2565632 5.54997819,71.4466774 C5.95134148,71.9619983 6.62123455,71.5315882 6.70311037,71.0039698 C7.24303273,71.4332087 8.12649,70.8347337 7.72569927,70.1179691 C6.92354527,68.685611 6.27254662,67.1859098 5.75609914,65.6381901 C4.75641256,59.2575794 4.39226556,52.6837233 5.02723258,46.2550941 C5.27801306,44.9217011 5.57631587,43.5994343 5.91756055,42.2941497 C7.0449276,39.2080797 8.49178212,36.235029 10.1304436,33.476305 C13.4484183,27.8903427 17.4047953,22.4437512 21.9938491,17.8808182 C22.7055389,17.173423 23.4435664,16.5064337 24.1993432,15.8663816 C26.775855,14.0539743 29.5103929,12.479903 32.3640228,11.1588074 C30.6469208,12.9905392 29.0695231,14.9423174 27.5848797,16.9743217 C27.2671099,17.4100022 27.5596871,17.9264944 27.9782272,18.115055 C27.7366076,18.8007833 28.7437375,19.3576813 29.3151505,18.8704687 C29.9174817,18.3569045 30.5180953,17.8404124 31.1147009,17.319821 C31.3797953,17.6173018 31.8378419,17.7291499 32.2105772,17.3584701 C32.8117633,16.7611663 33.3831764,16.1386819 33.9419932,15.5068281 C36.3719301,13.018062 39.0177214,10.7939835 41.9045598,8.84396209 C42.4788356,8.45571458 42.3603161,7.6171468 41.7184783,7.3899371" id="Fill-1" fill="url(#linearGradient-4)" mask="url(#mask-3)"></path>
                </g>
                <text id="Item-one" transform="translate(48.500000, 82.526493) rotate(-10.000000) translate(-48.500000, -82.526493) " font-family="PermanentMarker, Permanent Marker" font-size="18" font-weight="normal" line-spacing="22" fill="#F75889">
                    <tspan x="17.5" y="80.526493">Choose</tspan>
                    <tspan x="4" y="102.526493">Your Plan</tspan>
                </text>
            </g>
        </g>
    </g>
</svg>