<?xml version="1.0" encoding="UTF-8"?>
<svg width="10px" height="20px" viewBox="0 0 10 20" version="1.1" xmlns="http://www.w3.org/2000/svg" xmlns:xlink="http://www.w3.org/1999/xlink">
    <!-- Generator: Sketch 53.2 (72643) - https://sketchapp.com -->
    <title>img-dollar</title>
    <desc>Created with Sketch.</desc>
    <g id="Page-1" stroke="none" stroke-width="1" fill="none" fill-rule="evenodd">
        <g id="Plan-/-Lifetime" transform="translate(-786.000000, -364.000000)" fill="#E4E8F2" fill-rule="nonzero">
            <g id="Group" transform="translate(682.000000, 249.000000)">
                <g id="Pricing-/-Lifetime-1-User">
                    <g id="Group-20" transform="translate(103.000000, 106.000000)">
                        <g id="Group-12">
                            <path d="M8.62207031,22.328125 C8.62207031,21.7421846 8.41536665,21.2425151 8.00195312,20.8291016 C7.5885396,20.415688 6.9033251,20.0462256 5.94628906,19.7207031 C4.63117832,19.3235657 3.63834971,18.7929721 2.96777344,18.1289062 C2.29719717,17.4648404 1.96191406,16.5794326 1.96191406,15.4726562 C1.96191406,14.3984321 2.27115576,13.5227898 2.88964844,12.8457031 C3.50814111,12.1686164 4.35774199,11.7617194 5.43847656,11.625 L5.43847656,9.46679688 L6.98144531,9.46679688 L6.98144531,11.6347656 C8.06869033,11.7779955 8.91340845,12.2239546 9.515625,12.9726562 C10.1178416,13.7213579 10.4189453,14.7239521 10.4189453,15.9804688 L8.50488281,15.9804688 C8.50488281,15.1536417 8.29980674,14.4830755 7.88964844,13.96875 C7.47949014,13.4544245 6.91308955,13.1972656 6.19042969,13.1972656 C5.42219668,13.1972656 4.84603057,13.3974589 4.46191406,13.7978516 C4.07779756,14.1982442 3.88574219,14.7467413 3.88574219,15.4433594 C3.88574219,16.0748729 4.08430791,16.5859355 4.48144531,16.9765625 C4.87858271,17.3671895 5.59146621,17.7382795 6.62011719,18.0898438 C7.94824883,18.5195334 8.93456709,19.0550098 9.57910156,19.6962891 C10.223636,20.3375683 10.5458984,21.2083278 10.5458984,22.3085938 C10.5458984,23.428391 10.2106153,24.3186816 9.54003906,24.9794922 C8.86946279,25.6403028 7.94824805,26.0325515 6.77636719,26.15625 L6.77636719,28.03125 L5.24316406,28.03125 L5.24316406,26.1660156 C4.1233668,26.0488275 3.20540723,25.640303 2.48925781,24.9404297 C1.7731084,24.2405564 1.42805977,23.2135484 1.45410156,21.859375 L1.47363281,21.8105469 L3.32910156,21.8105469 C3.32910156,22.8131561 3.58300527,23.5276671 4.09082031,23.9541016 C4.59863535,24.380536 5.21711875,24.59375 5.94628906,24.59375 C6.78613701,24.59375 7.44205493,24.3935567 7.9140625,23.9931641 C8.38607007,23.5927714 8.62207031,23.037764 8.62207031,22.328125 Z" id="img-dollar"></path>
                        </g>
                    </g>
                </g>
            </g>
        </g>
    </g>
</svg>