<?xml version="1.0" encoding="UTF-8"?>
<svg width="107px" height="92px" viewBox="0 0 107 92" version="1.1" xmlns="http://www.w3.org/2000/svg" xmlns:xlink="http://www.w3.org/1999/xlink">
    <!-- Generator: Sketch 53.2 (72643) - https://sketchapp.com -->
    <title>img-choose-your-plan</title>
    <desc>Created with Sketch.</desc>
    <defs>
        <linearGradient x1="-54.0736349%" y1="50%" x2="114.171069%" y2="50%" id="linearGradient-1">
            <stop stop-color="#FB5960" offset="0%"></stop>
            <stop stop-color="#E74FA8" offset="100%"></stop>
        </linearGradient>
        <polygon id="path-2" points="2.60548702e-15 71.6786717 2.60548702e-15 0.000137741955 42.2742606 0.000137741955 42.2742606 71.6786717"></polygon>
        <linearGradient x1="-54.0736349%" y1="50%" x2="114.171069%" y2="50%" id="linearGradient-4">
            <stop stop-color="#FB5960" offset="0%"></stop>
            <stop stop-color="#E74FA8" offset="100%"></stop>
        </linearGradient>
    </defs>
    <g id="Page-1" stroke="none" stroke-width="1" fill="none" fill-rule="evenodd">
        <g id="Plan-/-Lifetime" transform="translate(-568.000000, -227.000000)">
            <g id="img-choose-your-plan" transform="translate(564.000000, 209.473507)">
                <g id="Page-1" transform="translate(74.831388, 41.000000) rotate(46.000000) translate(-74.831388, -41.000000) translate(53.331388, 5.000000)">
                    <mask id="mask-3" fill="white">
                        <use xlink:href="#path-2"></use>
                    </mask>
                    <g id="Clip-2"></g>
                    <path d="M23.5569329,14.5868631 C22.4633468,15.3522318 21.3960984,16.1562497 20.3591955,17.0006734 C21.697264,15.8095792 23.1137729,14.7215492 24.6001339,13.7477097 C24.2485832,14.0217668 23.9010404,14.3010942 23.5569329,14.5868631 M15.4838626,19.9526428 C20.3111006,14.1781198 26.6441666,9.74518822 33.8297718,7.87187934 C33.5200178,8.03994425 33.2108364,8.20918034 32.9022275,8.37958762 C26.0767615,10.3395641 20.147349,14.5183488 15.4838626,19.9526428 M10.0869292,30.8786188 C10.3835143,30.2584768 10.6915506,29.6436052 11.015046,29.0357607 C11.7725405,27.9652984 12.5712591,26.9270438 13.4008959,25.9157264 C12.23574,27.5337171 11.1312753,29.1938705 10.0869292,30.8786188 M39.5021056,8.28647849 C39.6011582,8.32102842 39.7007833,8.35616394 39.7998359,8.39129946 C39.5490554,8.5716618 39.3040005,8.75846566 39.0566554,8.94292715 C39.2089558,8.72684369 39.3555307,8.50666109 39.5021056,8.28647849 M2.06653423,55.6380351 C2.09287191,59.7008726 2.87727662,63.7186194 4.65163441,67.482805 C4.66423069,67.556004 4.67739953,67.6286174 4.69114093,67.7018164 C2.58985241,63.9311893 1.89304911,59.8285316 2.06653423,55.6380351 M41.7184783,7.3899371 C41.6280142,7.35772954 41.5369774,7.32552198 41.4465132,7.29331442 C41.95609,7.02979801 42.0207891,6.08640926 41.3153974,5.81820811 C41.1573713,5.75847772 40.9987727,5.69991852 40.8407467,5.63960254 C40.7187918,5.13950695 40.0780992,4.85139568 39.6246331,5.18225517 C36.9943008,4.18850551 34.3616783,3.20061176 31.7273381,2.21681716 C30.8324297,1.84203827 29.9369487,1.46667378 29.0420403,1.09130929 C28.901191,1.0321645 28.7677849,1.02982213 28.6469751,1.06612884 C27.7423332,0.728827832 26.8371187,0.390941235 25.9319042,0.0524690453 C25.3467498,-0.166542371 24.9860381,0.341751505 25.0221093,0.837747949 C24.9236293,0.824279332 24.8262944,0.80905394 24.7278144,0.797342099 C24.7272418,0.797342099 24.7272418,0.797342099 24.7272418,0.797342099 L24.7272418,0.797342099 C24.6591074,0.789143811 24.5926907,0.776260786 24.5245562,0.769233682 C24.2136571,0.737611713 24.0063911,0.873469062 23.8953148,1.0760839 C23.8752753,1.06964239 23.8552357,1.06320088 23.8346236,1.05734496 C22.8607022,0.767476906 22.4782333,2.26425012 23.419519,2.59745198 C25.3627814,3.28435142 27.3054713,3.97183646 29.2481612,4.6587359 C29.4393956,4.85490923 29.511538,4.8718914 30.0548957,5.1436061 C30.2260906,5.22968813 30.3864069,5.19396701 30.4997734,5.10202906 C31.6866865,5.52189854 32.8735996,5.94118243 34.0605127,6.36163751 C23.341651,8.96400846 14.3645114,16.9245464 9.16511054,26.8450609 C7.81501835,29.4210802 6.72773037,32.095479 5.87175589,34.8378064 C0.213735968,45.7573409 -2.48816608,59.5615017 2.98205476,70.8411752 C3.17099896,71.2300083 3.84661761,70.9506809 3.67828551,70.5407665 C2.8761315,68.5889883 2.28983192,66.5839212 1.89247655,64.5472321 C2.66084962,66.9411323 3.84375482,69.2565632 5.54997819,71.4466774 C5.95134148,71.9619983 6.62123455,71.5315882 6.70311037,71.0039698 C7.24303273,71.4332087 8.12649,70.8347337 7.72569927,70.1179691 C6.92354527,68.685611 6.27254662,67.1859098 5.75609914,65.6381901 C4.75641256,59.2575794 4.39226556,52.6837233 5.02723258,46.2550941 C5.27801306,44.9217011 5.57631587,43.5994343 5.91756055,42.2941497 C7.0449276,39.2080797 8.49178212,36.235029 10.1304436,33.476305 C13.4484183,27.8903427 17.4047953,22.4437512 21.9938491,17.8808182 C22.7055389,17.173423 23.4435664,16.5064337 24.1993432,15.8663816 C26.775855,14.0539743 29.5103929,12.479903 32.3640228,11.1588074 C30.6469208,12.9905392 29.0695231,14.9423174 27.5848797,16.9743217 C27.2671099,17.4100022 27.5596871,17.9264944 27.9782272,18.115055 C27.7366076,18.8007833 28.7437375,19.3576813 29.3151505,18.8704687 C29.9174817,18.3569045 30.5180953,17.8404124 31.1147009,17.319821 C31.3797953,17.6173018 31.8378419,17.7291499 32.2105772,17.3584701 C32.8117633,16.7611663 33.3831764,16.1386819 33.9419932,15.5068281 C36.3719301,13.018062 39.0177214,10.7939835 41.9045598,8.84396209 C42.4788356,8.45571458 42.3603161,7.6171468 41.7184783,7.3899371" id="Fill-1" fill="url(#linearGradient-4)" mask="url(#mask-3)"></path>
                </g>
                <path d="M17.2060547,77.9971961 C16.8662092,77.7393823 16.5878917,77.4171199 16.3710938,77.0303992 C16.1542958,76.6436785 15.9843756,76.2335264 15.8613281,75.7999305 C15.7382806,75.3663345 15.6562502,74.9180968 15.6152344,74.4552039 C15.5742185,73.992311 15.5595703,73.5499326 15.5712891,73.1280555 C15.6767583,72.8116476 15.8056633,72.5216115 15.9580078,72.2579383 C16.1103523,71.9942651 16.2802725,71.7423145 16.4677734,71.5020789 C16.6552744,71.2618433 16.8515615,71.03333 17.0566406,70.816532 C17.2617198,70.5997341 17.4638662,70.3800097 17.6630859,70.1573523 C17.7333988,70.1573523 17.7978513,70.1749303 17.8564453,70.2100867 C17.9033205,70.0811798 17.9736323,69.9698528 18.0673828,69.8761023 C18.1611333,69.7823519 18.2607417,69.6973918 18.3662109,69.6212195 L18.6826172,69.3927039 C18.7880865,69.3165316 18.8759762,69.2257122 18.9462891,69.120243 C19.2392593,69.0499301 19.4999989,68.9503217 19.7285156,68.8214148 C19.9570324,68.6925079 20.1767568,68.5518843 20.3876953,68.3995398 C20.5986339,68.2471953 20.8154286,68.1065717 21.0380859,67.9776648 C21.2607433,67.8487579 21.5185532,67.7491496 21.8115234,67.6788367 C21.9169927,67.5616486 22.0488273,67.4620402 22.2070312,67.3800086 C22.3652352,67.2979769 22.5234367,67.2218058 22.6816406,67.151493 C22.8398445,67.0811801 22.9921868,67.005009 23.1386719,66.9229773 C23.285157,66.8409457 23.405273,66.7296187 23.4990234,66.588993 C23.5693363,66.6827434 23.6689447,66.7149697 23.7978516,66.6856726 C23.9267585,66.6563756 24.0439448,66.6241494 24.1494141,66.588993 C24.2197269,66.5772741 24.2783201,66.5889928 24.3251953,66.6241492 C24.3720705,66.6593056 24.4160154,66.6973912 24.4570312,66.738407 C24.4980471,66.7794228 24.533203,66.8057898 24.5625,66.8175086 C24.591797,66.8292274 24.6240233,66.7940715 24.6591797,66.7120398 C24.7529302,66.7237586 24.7792971,66.7647739 24.7382812,66.8350867 C24.6972654,66.9053996 24.6708985,66.9522741 24.6591797,66.9757117 C24.7763678,66.9522741 24.8730465,66.9727817 24.9492188,67.0372351 C25.025391,67.1016886 25.145507,67.1456335 25.3095703,67.1690711 C25.3681644,67.2276651 25.3857423,67.2745397 25.3623047,67.3096961 C25.3388671,67.3448525 25.3212891,67.4034457 25.3095703,67.4854773 C25.7314474,67.6143842 26.000976,67.8165306 26.1181641,68.0919226 C26.2353521,68.3673146 26.2470708,68.6544211 26.1533203,68.9532508 C26.0595698,69.2520804 25.88672,69.5274683 25.6347656,69.7794226 C25.3828112,70.031377 25.1044937,70.1983675 24.7998047,70.2803992 C24.4365216,70.3741497 24.0996109,70.4678987 23.7890625,70.5616492 C23.4785141,70.6553997 23.1796889,70.7608674 22.8925781,70.8780555 C22.6054673,70.9952435 22.3359388,71.1329375 22.0839844,71.2911414 C21.83203,71.4493453 21.6123056,71.6339138 21.4248047,71.8448523 C21.096678,71.9386028 20.8007826,72.0675078 20.5371094,72.2315711 C20.2734362,72.3956344 20.0273449,72.5772732 19.7988281,72.776493 C19.5703114,72.9757127 19.350587,73.1837184 19.1396484,73.4005164 C18.9287099,73.6173144 18.7177745,73.8311794 18.5068359,74.042118 C18.5068359,74.2413377 18.47168,74.3936799 18.4013672,74.4991492 C18.3310543,74.6046185 18.2548832,74.7100862 18.1728516,74.8155555 C18.1962892,75.0382128 18.2460934,75.2286406 18.3222656,75.3868445 C18.3984379,75.5450484 18.4775387,75.7061796 18.5595703,75.870243 C19.497075,76.1514944 20.4902291,76.3243442 21.5390625,76.3887976 C22.5878959,76.4532511 23.6279245,76.4913366 24.6591797,76.5030555 C24.764649,76.6436812 24.884765,76.7755158 25.0195312,76.8985633 C25.1542975,77.0216108 25.2773432,77.1475861 25.3886719,77.276493 C25.5000006,77.4053999 25.5878903,77.5548124 25.6523438,77.7247351 C25.7167972,77.8946579 25.7314455,78.0968043 25.6962891,78.3311805 C25.4970693,78.5304002 25.2802746,78.720828 25.0458984,78.9024695 C24.8115223,79.0841111 24.5771496,79.2628202 24.3427734,79.4386023 C24.2373042,79.4503211 24.1113289,79.4503211 23.9648438,79.4386023 C23.8183586,79.4268835 23.6660164,79.4210242 23.5078125,79.4210242 C23.3496086,79.4210242 23.191407,79.4298132 23.0332031,79.4473914 C22.8749992,79.4649696 22.7255866,79.5030552 22.5849609,79.5616492 C21.846676,79.5382116 21.0908242,79.4473922 20.3173828,79.2891883 C19.5439414,79.1309844 18.8291048,78.9405566 18.1728516,78.7178992 C18.0439447,78.5655547 17.9091804,78.4220014 17.7685547,78.2872351 C17.627929,78.1524688 17.4404309,78.0557901 17.2060547,77.9971961 Z M26.8326077,78.938414 C26.7073966,78.7776804 26.6303823,78.636794 26.6015625,78.5157508 C26.5722655,78.3927033 26.5048833,78.2374314 26.3994141,78.0499305 C26.4228517,78.0264928 26.4433593,77.9854776 26.4609375,77.9268836 C26.4785157,77.8682895 26.493164,77.8155557 26.5048828,77.7686805 C26.5166016,77.7218052 26.5341796,77.6866493 26.5576172,77.6632117 C26.5810533,77.6397756 26.6103476,77.6456326 26.645501,77.680783 C26.6220734,77.5732756 26.6223432,77.4866119 26.6455078,77.417118 C26.6689454,77.3468051 26.6923827,77.2823526 26.7158203,77.2237586 C26.7392579,77.1651645 26.7568359,77.1065714 26.7685547,77.0479773 C26.7802735,76.9893833 26.7626955,76.9249308 26.7158203,76.854618 C26.9033213,76.5968042 27.0263669,76.3184866 27.0849609,76.019657 C27.143555,75.7208274 27.1787109,75.4483692 27.1904297,75.2022742 C27.2724613,75.1202425 27.3457028,75.0030562 27.4101562,74.8507117 C27.4746097,74.6983672 27.5244139,74.5430953 27.5595703,74.3848914 C27.5947267,74.2266875 27.609375,74.0743453 27.6035156,73.9278601 C27.5976562,73.781375 27.5771486,73.661259 27.5419922,73.5675086 C27.553711,73.5089145 27.6181635,73.4913366 27.7353516,73.5147742 C27.8056644,73.1280535 27.8554686,72.6915345 27.8847656,72.2052039 C27.9140626,71.7188733 27.9638668,71.2559873 28.0341797,70.816532 C28.1044925,70.3770767 28.2216789,69.9903618 28.3857422,69.6563758 C28.5498055,69.3223897 28.8134747,69.1026654 29.1767578,68.9971961 C29.2470707,69.2432911 29.3378901,69.4600858 29.4492188,69.6475867 C29.5605474,69.8350876 29.6835931,70.0137968 29.8183594,70.1837195 C29.9531257,70.3536422 30.08789,70.5264921 30.2226562,70.7022742 C30.3574225,70.8780563 30.4833979,71.0772731 30.6005859,71.2999305 C30.5888671,71.5225878 30.5654299,71.7803977 30.5302734,72.073368 C30.495117,72.3663382 30.4511721,72.6651633 30.3984375,72.9698523 C30.3457029,73.2745414 30.292969,73.5675072 30.2402344,73.8487586 C30.1874997,74.13001 30.1376955,74.370242 30.0908203,74.5694617 C30.1025391,74.6280557 30.1347654,74.6632116 30.1875,74.6749305 C30.2402346,74.6866493 30.2490236,74.7393831 30.2138672,74.8331336 C30.4951186,74.7628207 30.7880844,74.6983682 31.0927734,74.6397742 C31.3974625,74.5811802 31.7021469,74.5167277 32.0068359,74.4464148 C32.311525,74.376102 32.6074204,74.2970012 32.8945312,74.2091101 C33.1816421,74.1212191 33.448241,74.0128217 33.6943359,73.8839148 C33.75293,73.4268813 33.8291011,72.9698546 33.9228516,72.5128211 C34.016602,72.0557875 34.0283207,71.5870422 33.9580078,71.1065711 C34.0166019,71.0596958 34.0634764,71.0011027 34.0986328,70.9307898 C34.1337892,70.860477 34.1923824,70.8136024 34.2744141,70.7901648 C34.21582,70.5675075 34.1923828,70.3331348 34.2041016,70.0870398 C34.2158204,69.8409449 34.2597652,69.6065722 34.3359375,69.3839148 C34.4121098,69.1612575 34.5234368,68.9708297 34.6699219,68.8126258 C34.816407,68.6544219 34.9951161,68.5518838 35.2060547,68.5050086 C35.3349616,68.6925095 35.4462886,68.8946559 35.5400391,69.1114539 C35.6337895,69.3282519 35.7304683,69.5450466 35.8300781,69.7618445 C35.929688,69.9786425 36.0351557,70.1837186 36.1464844,70.3770789 C36.2578131,70.5704392 36.4013663,70.7374298 36.5771484,70.8780555 C36.6123049,71.2179009 36.6386718,71.5694599 36.65625,71.932743 C36.6738282,72.296026 36.6884765,72.665163 36.7001953,73.0401648 C36.6064448,73.4854796 36.5039068,73.9161393 36.3925781,74.332157 C36.2812494,74.7481747 36.2021487,75.1905531 36.1552734,75.6593055 C36.0732418,75.7530559 36.0087893,75.8585236 35.9619141,75.9757117 C35.9150388,76.0928998 35.8681643,76.2130158 35.8212891,76.3360633 C35.7744138,76.4591108 35.72168,76.5762971 35.6630859,76.6876258 C35.6044919,76.7989545 35.5341801,76.8956332 35.4521484,76.9776648 C35.4990237,77.1182905 35.5078126,77.2501252 35.4785156,77.3731726 C35.4492186,77.4962201 35.4814448,77.6456327 35.5751953,77.8214148 C35.5986329,78.1261039 35.563477,78.3780545 35.4697266,78.5772742 C35.3759761,78.776494 35.2470711,78.9464141 35.0830078,79.0870398 C34.9189445,79.2276655 34.7314464,79.3389925 34.5205078,79.4210242 C34.3095693,79.5030559 34.1044932,79.579227 33.9052734,79.6495398 C33.811523,79.5909458 33.7207036,79.529423 33.6328125,79.4649695 C33.5449214,79.4005161 33.4423834,79.3507119 33.3251953,79.3155555 C33.1728508,79.034304 33.0263679,78.7852831 32.8857422,78.5684851 C32.7451165,78.3516872 32.680664,78.1026662 32.6923828,77.8214148 C32.6923828,77.809696 32.7011718,77.7452435 32.71875,77.6280555 C32.7363282,77.5108674 32.7597655,77.3819624 32.7890625,77.2413367 C32.8183595,77.100711 32.8417968,76.9688764 32.859375,76.8458289 C32.8769532,76.7227814 32.8857422,76.6553993 32.8857422,76.6436805 C32.6162096,76.6671181 32.3349624,76.7257112 32.0419922,76.8194617 C31.749022,76.9132122 31.4648451,77.0245392 31.1894531,77.1534461 C30.9140611,77.282353 30.6562512,77.4112579 30.4160156,77.5401648 C30.17578,77.6690717 29.9794929,77.7803987 29.8271484,77.8741492 C29.8271484,77.9093056 29.8037112,77.9942657 29.7568359,78.129032 C29.7099607,78.2637983 29.6513675,78.4044219 29.5810547,78.550907 C29.5107418,78.6973921 29.4345707,78.8292267 29.3525391,78.9464148 C29.2705074,79.0636029 29.188477,79.1221961 29.1064453,79.1221961 C29.1181641,79.1573525 29.1357421,79.1925084 29.1591797,79.2276648 C29.1826173,79.2628213 29.1826173,79.3096958 29.1591797,79.3682898 C28.9951164,79.4151651 28.8486335,79.4766879 28.7197266,79.5528601 C28.5908197,79.6290324 28.4560554,79.6934849 28.3154297,79.7462195 C28.174804,79.7989542 28.0224618,79.8253211 27.8583984,79.8253211 C27.6943351,79.8253211 27.5009777,79.7667279 27.2783203,79.6495398 C27.2783203,79.579227 27.2490237,79.5177042 27.1904297,79.4649695 C27.1318356,79.4122349 27.0703128,79.3653603 27.0058594,79.3243445 C26.9414059,79.2833287 26.8857424,79.2481728 26.8388672,79.2188758 C26.791992,79.1895787 26.7685547,79.1632118 26.7685547,79.1397742 C26.7099606,79.151493 26.6865234,79.1104778 26.6982422,79.0167273 C26.7099595,78.9229892 26.7568232,78.8995458 26.8388348,78.9463963 L26.8326077,78.938414 Z M47.2998047,74.2530555 C47.2880859,74.3936812 47.2998045,74.5284454 47.3349609,74.6573523 C47.3701174,74.7862592 47.4140622,74.9122345 47.4667969,75.035282 C47.5195315,75.1583295 47.5693357,75.2843048 47.6162109,75.4132117 C47.6630862,75.5421186 47.6982421,75.6710236 47.7216797,75.7999305 C47.7451173,75.9639938 47.7451173,76.1427029 47.7216797,76.3360633 C47.6982421,76.5294236 47.6572269,76.7169217 47.5986328,76.8985633 C47.5400388,77.0802048 47.4638677,77.2442657 47.3701172,77.3907508 C47.2763667,77.5372359 47.1650397,77.6456332 47.0361328,77.7159461 C46.8720695,77.9268846 46.6728527,78.0909455 46.4384766,78.2081336 C46.2041004,78.3253217 45.9873057,78.4659453 45.7880859,78.6300086 C45.659179,78.7120402 45.5156258,78.7706334 45.3574219,78.8057898 C45.199218,78.8409463 45.0380868,78.8761022 44.8740234,78.9112586 C44.7451165,78.9815714 44.5927743,79.0548129 44.4169922,79.1309851 C44.2412101,79.2071574 44.0595712,79.2774692 43.8720703,79.3419226 C43.6845694,79.4063761 43.4970712,79.4532506 43.3095703,79.4825476 C43.1220694,79.5118447 42.9580085,79.5206336 42.8173828,79.5089148 C42.4658186,79.6378217 42.1230485,79.7227818 41.7890625,79.7637976 C41.4550765,79.8048135 41.0654319,79.7784465 40.6201172,79.6846961 C40.1982401,79.7432901 39.8085955,79.7257122 39.4511719,79.6319617 C39.0937482,79.5382112 38.7773451,79.3887987 38.5019531,79.1837195 C38.2265611,78.9786404 37.9863292,78.7325491 37.78125,78.4454383 C37.5761708,78.1583275 37.4091803,77.8565727 37.2802734,77.5401648 C37.186523,76.8721927 37.2099602,76.2657535 37.3505859,75.7208289 C37.4912116,75.1759043 37.6933581,74.6720031 37.9570312,74.2091101 C38.2207044,73.7462172 38.5224592,73.3184871 38.8623047,72.925907 C39.2021501,72.5333269 39.5302719,72.1495417 39.8466797,71.7745398 C39.9169925,71.7979774 39.972656,71.7950478 40.0136719,71.7657508 C40.0546877,71.7364537 40.0927733,71.6954385 40.1279297,71.6427039 C40.1630861,71.5899693 40.2011717,71.5401651 40.2421875,71.4932898 C40.2832033,71.4464146 40.3330075,71.417118 40.3916016,71.4053992 C40.4736332,71.2296171 40.5937492,71.0977825 40.7519531,71.0098914 C40.910157,70.9220003 41.0361323,70.796025 41.1298828,70.6319617 C41.2353521,70.6085241 41.3232418,70.5733682 41.3935547,70.526493 C41.4638675,70.4796177 41.5312497,70.4268839 41.5957031,70.3682898 C41.6601566,70.3096958 41.7275387,70.2540323 41.7978516,70.2012976 C41.8681644,70.148563 41.9501948,70.1104774 42.0439453,70.0870398 L42.0439453,69.8936805 C42.2548839,69.79993 42.4101558,69.6915326 42.5097656,69.5684851 C42.6093755,69.4454377 42.7294915,69.2960251 42.8701172,69.120243 C42.9755865,69.1085241 43.0605466,69.1026648 43.125,69.1026648 C43.1894534,69.1026648 43.2861322,69.0909462 43.4150391,69.0675086 C43.5087895,68.9034453 43.5937496,68.7803996 43.6699219,68.698368 C43.7460941,68.6163363 43.8603508,68.5284465 44.0126953,68.4346961 C44.153321,68.5050089 44.3085929,68.5518835 44.4785156,68.5753211 C44.6484383,68.5987587 44.7978509,68.6749298 44.9267578,68.8038367 C44.9384766,68.9210248 44.9736325,69.0118442 45.0322266,69.0762976 C45.0908206,69.1407511 45.1552731,69.1993443 45.2255859,69.2520789 C45.2958988,69.3048135 45.3632809,69.360477 45.4277344,69.4190711 C45.4921878,69.4776651 45.5361327,69.5596956 45.5595703,69.6651648 C45.6064455,69.6768836 45.6386718,69.6710243 45.65625,69.6475867 C45.6738282,69.6241491 45.7060545,69.6182898 45.7529297,69.6300086 C45.7880861,69.7940719 45.8291013,69.9024693 45.8759766,69.9552039 C45.9228518,70.0079385 45.9697263,70.1104766 46.0166016,70.2628211 C45.9580075,70.3800092 45.9140626,70.5001252 45.8847656,70.6231726 C45.8554686,70.7462201 45.7822271,70.8370395 45.6650391,70.8956336 C45.6533203,70.9776652 45.6767575,71.0216101 45.7353516,71.0274695 C45.7939456,71.0333289 45.8291015,71.0655552 45.8408203,71.1241492 C45.8525391,71.2296185 45.8349612,71.3057896 45.7880859,71.3526648 C46.0693373,71.8096984 46.3212879,72.293092 46.5439453,72.8028601 C46.7666027,73.3126283 47.0185533,73.7960219 47.2998047,74.2530555 Z M45.1025391,75.9229773 C45.1494143,75.7940704 45.2109371,75.6886027 45.2871094,75.6065711 C45.3632816,75.5245394 45.4072265,75.4014938 45.4189453,75.2374305 C45.3603513,75.14368 45.3251954,75.0704385 45.3134766,75.0177039 C45.3017578,74.9649693 45.2958984,74.8800092 45.2958984,74.7628211 C45.0380846,74.399538 44.8154306,74.0098935 44.6279297,73.5938758 C44.4404288,73.1778581 44.2294934,72.7882135 43.9951172,72.4249305 C43.9716796,72.4718057 43.9306644,72.5186802 43.8720703,72.5655555 C43.8134763,72.6124307 43.7490238,72.6007121 43.6787109,72.5303992 C43.6552733,72.6241497 43.6142581,72.6915318 43.5556641,72.7325476 C43.49707,72.7735635 43.4326175,72.7911414 43.3623047,72.785282 C43.2919918,72.7794226 43.2187504,72.7618447 43.1425781,72.7325476 C43.0664059,72.7032506 42.9990237,72.6651651 42.9404297,72.6182898 C42.6005842,72.8878224 42.2607439,73.1514917 41.9208984,73.4093055 C41.581053,73.6671192 41.2763685,73.9659444 41.0068359,74.3057898 C40.9599607,74.3292274 40.9306641,74.3380164 40.9189453,74.332157 C40.9072265,74.3262976 40.8720706,74.3350866 40.8134766,74.3585242 C40.7197261,74.5811816 40.6054694,74.783328 40.4707031,74.9649695 C40.3359368,75.1466111 40.2041022,75.3311795 40.0751953,75.5186805 C39.9462884,75.7061814 39.8349614,75.9053982 39.7412109,76.1163367 C39.6474605,76.3272753 39.5947266,76.5733665 39.5830078,76.854618 C39.7822276,77.0186813 40.0166002,77.1182897 40.2861328,77.1534461 C40.5556654,77.1886025 40.8339829,77.1944618 41.1210938,77.1710242 C41.4082046,77.1475866 41.6894517,77.109501 41.9648438,77.0567664 C42.2402358,77.0040318 42.495116,76.9776648 42.7294922,76.9776648 C43.2216821,76.8604767 43.6435529,76.7052049 43.9951172,76.5118445 C44.3466814,76.3184842 44.7158184,76.1221971 45.1025391,75.9229773 Z M58.6201172,74.2530555 C58.6083984,74.3936812 58.620117,74.5284454 58.6552734,74.6573523 C58.6904299,74.7862592 58.7343747,74.9122345 58.7871094,75.035282 C58.839844,75.1583295 58.8896482,75.2843048 58.9365234,75.4132117 C58.9833987,75.5421186 59.0185546,75.6710236 59.0419922,75.7999305 C59.0654298,75.9639938 59.0654298,76.1427029 59.0419922,76.3360633 C59.0185546,76.5294236 58.9775394,76.7169217 58.9189453,76.8985633 C58.8603513,77.0802048 58.7841802,77.2442657 58.6904297,77.3907508 C58.5966792,77.5372359 58.4853522,77.6456332 58.3564453,77.7159461 C58.192382,77.9268846 57.9931652,78.0909455 57.7587891,78.2081336 C57.5244129,78.3253217 57.3076182,78.4659453 57.1083984,78.6300086 C56.9794915,78.7120402 56.8359383,78.7706334 56.6777344,78.8057898 C56.5195305,78.8409463 56.3583993,78.8761022 56.1943359,78.9112586 C56.065429,78.9815714 55.9130868,79.0548129 55.7373047,79.1309851 C55.5615226,79.2071574 55.3798838,79.2774692 55.1923828,79.3419226 C55.0048819,79.4063761 54.8173837,79.4532506 54.6298828,79.4825476 C54.4423819,79.5118447 54.278321,79.5206336 54.1376953,79.5089148 C53.7861311,79.6378217 53.443361,79.7227818 53.109375,79.7637976 C52.775389,79.8048135 52.3857444,79.7784465 51.9404297,79.6846961 C51.5185526,79.7432901 51.128908,79.7257122 50.7714844,79.6319617 C50.4140607,79.5382112 50.0976576,79.3887987 49.8222656,79.1837195 C49.5468736,78.9786404 49.3066417,78.7325491 49.1015625,78.4454383 C48.8964833,78.1583275 48.7294928,77.8565727 48.6005859,77.5401648 C48.5068355,76.8721927 48.5302727,76.2657535 48.6708984,75.7208289 C48.8115241,75.1759043 49.0136706,74.6720031 49.2773438,74.2091101 C49.5410169,73.7462172 49.8427717,73.3184871 50.1826172,72.925907 C50.5224626,72.5333269 50.8505844,72.1495417 51.1669922,71.7745398 C51.237305,71.7979774 51.2929685,71.7950478 51.3339844,71.7657508 C51.3750002,71.7364537 51.4130858,71.6954385 51.4482422,71.6427039 C51.4833986,71.5899693 51.5214842,71.5401651 51.5625,71.4932898 C51.6035158,71.4464146 51.65332,71.417118 51.7119141,71.4053992 C51.7939457,71.2296171 51.9140617,71.0977825 52.0722656,71.0098914 C52.2304695,70.9220003 52.3564448,70.796025 52.4501953,70.6319617 C52.5556646,70.6085241 52.6435543,70.5733682 52.7138672,70.526493 C52.78418,70.4796177 52.8515622,70.4268839 52.9160156,70.3682898 C52.9804691,70.3096958 53.0478512,70.2540323 53.1181641,70.2012976 C53.1884769,70.148563 53.2705073,70.1104774 53.3642578,70.0870398 L53.3642578,69.8936805 C53.5751964,69.79993 53.7304683,69.6915326 53.8300781,69.5684851 C53.929688,69.4454377 54.049804,69.2960251 54.1904297,69.120243 C54.295899,69.1085241 54.3808591,69.1026648 54.4453125,69.1026648 C54.5097659,69.1026648 54.6064447,69.0909462 54.7353516,69.0675086 C54.829102,68.9034453 54.9140621,68.7803996 54.9902344,68.698368 C55.0664066,68.6163363 55.1806633,68.5284465 55.3330078,68.4346961 C55.4736335,68.5050089 55.6289054,68.5518835 55.7988281,68.5753211 C55.9687508,68.5987587 56.1181634,68.6749298 56.2470703,68.8038367 C56.2587891,68.9210248 56.293945,69.0118442 56.3525391,69.0762976 C56.4111331,69.1407511 56.4755856,69.1993443 56.5458984,69.2520789 C56.6162113,69.3048135 56.6835934,69.360477 56.7480469,69.4190711 C56.8125003,69.4776651 56.8564452,69.5596956 56.8798828,69.6651648 C56.926758,69.6768836 56.9589843,69.6710243 56.9765625,69.6475867 C56.9941407,69.6241491 57.026367,69.6182898 57.0732422,69.6300086 C57.1083986,69.7940719 57.1494138,69.9024693 57.1962891,69.9552039 C57.2431643,70.0079385 57.2900388,70.1104766 57.3369141,70.2628211 C57.27832,70.3800092 57.2343751,70.5001252 57.2050781,70.6231726 C57.1757811,70.7462201 57.1025396,70.8370395 56.9853516,70.8956336 C56.9736328,70.9776652 56.99707,71.0216101 57.0556641,71.0274695 C57.1142581,71.0333289 57.149414,71.0655552 57.1611328,71.1241492 C57.1728516,71.2296185 57.1552737,71.3057896 57.1083984,71.3526648 C57.3896498,71.8096984 57.6416004,72.293092 57.8642578,72.8028601 C58.0869152,73.3126283 58.3388658,73.7960219 58.6201172,74.2530555 Z M56.4228516,75.9229773 C56.4697268,75.7940704 56.5312496,75.6886027 56.6074219,75.6065711 C56.6835941,75.5245394 56.727539,75.4014938 56.7392578,75.2374305 C56.6806638,75.14368 56.6455079,75.0704385 56.6337891,75.0177039 C56.6220703,74.9649693 56.6162109,74.8800092 56.6162109,74.7628211 C56.3583971,74.399538 56.1357431,74.0098935 55.9482422,73.5938758 C55.7607412,73.1778581 55.5498059,72.7882135 55.3154297,72.4249305 C55.2919921,72.4718057 55.2509769,72.5186802 55.1923828,72.5655555 C55.1337888,72.6124307 55.0693363,72.6007121 54.9990234,72.5303992 C54.9755858,72.6241497 54.9345706,72.6915318 54.8759766,72.7325476 C54.8173825,72.7735635 54.75293,72.7911414 54.6826172,72.785282 C54.6123043,72.7794226 54.5390629,72.7618447 54.4628906,72.7325476 C54.3867184,72.7032506 54.3193362,72.6651651 54.2607422,72.6182898 C53.9208967,72.8878224 53.5810564,73.1514917 53.2412109,73.4093055 C52.9013655,73.6671192 52.596681,73.9659444 52.3271484,74.3057898 C52.2802732,74.3292274 52.2509766,74.3380164 52.2392578,74.332157 C52.227539,74.3262976 52.1923831,74.3350866 52.1337891,74.3585242 C52.0400386,74.5811816 51.9257819,74.783328 51.7910156,74.9649695 C51.6562493,75.1466111 51.5244147,75.3311795 51.3955078,75.5186805 C51.2666009,75.7061814 51.1552739,75.9053982 51.0615234,76.1163367 C50.967773,76.3272753 50.9150391,76.5733665 50.9033203,76.854618 C51.1025401,77.0186813 51.3369127,77.1182897 51.6064453,77.1534461 C51.8759779,77.1886025 52.1542954,77.1944618 52.4414062,77.1710242 C52.7285171,77.1475866 53.0097642,77.109501 53.2851562,77.0567664 C53.5605483,77.0040318 53.8154285,76.9776648 54.0498047,76.9776648 C54.5419946,76.8604767 54.9638654,76.7052049 55.3154297,76.5118445 C55.6669939,76.3184842 56.0361309,76.1221971 56.4228516,75.9229773 Z M62.5539697,79.6351346 C62.4612089,79.7153546 62.3598866,79.7670308 62.25,79.7901648 C62.1386713,79.8136024 62.0185553,79.8223914 61.8896484,79.816532 C61.7607415,79.8106726 61.6289069,79.8018836 61.4941406,79.7901648 C61.3593743,79.778446 61.233399,79.7843053 61.1162109,79.807743 C61.0341793,79.7257113 60.9609378,79.6466105 60.8964844,79.5704383 C60.8320309,79.494266 60.7822267,79.3975873 60.7470703,79.2803992 C60.6884763,79.2803992 60.6621093,79.2511026 60.6679688,79.1925086 C60.6738282,79.1339145 60.6533205,79.104618 60.6064453,79.104618 C60.6767582,78.9874299 60.7089844,78.9200477 60.703125,78.9024695 C60.6972656,78.8848913 60.6796876,78.870243 60.6503906,78.8585242 C60.6210936,78.8468054 60.5947267,78.8321571 60.5712891,78.8145789 C60.5478514,78.7970007 60.5419921,78.7706338 60.5537109,78.7354773 C60.6005862,78.6417269 60.6181641,78.5333295 60.6064453,78.410282 C60.5947265,78.2872345 60.5830079,78.1612592 60.5712891,78.0323523 C60.5595703,77.9034454 60.5683592,77.7803998 60.5976562,77.6632117 C60.6269533,77.5460236 60.7119134,77.4522746 60.8525391,77.3819617 C61.2509786,77.4288369 61.6289045,77.4141886 61.9863281,77.3380164 C62.3437518,77.2618441 62.6806625,77.1534468 62.9970703,77.0128211 C63.3134781,76.8721954 63.6152329,76.7198532 63.9023438,76.5557898 C64.1894546,76.3917265 64.4736314,76.2452436 64.7548828,76.1163367 C64.7900392,76.0108674 64.8398434,75.9229777 64.9042969,75.8526648 C64.9687503,75.782352 65.0361325,75.7178995 65.1064453,75.6593055 C65.1767582,75.6007114 65.2412106,75.5362589 65.2998047,75.4659461 C65.3583987,75.3956332 65.3994139,75.3077435 65.4228516,75.2022742 C65.4345704,75.1202425 65.4140628,75.0704384 65.3613281,75.0528601 C65.3085935,75.0352819 65.2822266,74.9913371 65.2822266,74.9210242 L65.0888672,74.8682898 C64.8662098,74.7393829 64.6142592,74.6309856 64.3330078,74.5430945 C64.0517564,74.4552035 63.8115244,74.3585247 63.6123047,74.2530555 C63.4833978,74.3233683 63.3632818,74.3409463 63.2519531,74.3057898 C63.1406244,74.2706334 62.9970712,74.2354775 62.8212891,74.2003211 C62.4228496,74.1768835 62.0390643,74.1358682 61.6699219,74.0772742 C61.3007794,74.0186802 60.9462908,73.9132125 60.6064453,73.760868 C60.5830077,73.7022739 60.5537111,73.6495401 60.5185547,73.6026648 C60.4833983,73.5557896 60.4189458,73.544071 60.3251953,73.5675086 C60.2548825,73.4737581 60.1845707,73.3829387 60.1142578,73.2950476 C60.043945,73.2071566 59.9794925,73.1104779 59.9208984,73.0050086 C59.9443361,72.8643829 59.961914,72.7442669 59.9736328,72.644657 C59.9853516,72.5450471 59.9501957,72.4483684 59.8681641,72.354618 C59.9150393,72.2022734 59.9501952,72.0792278 59.9736328,71.9854773 C59.9970704,71.8917269 59.9970704,71.7686812 59.9736328,71.6163367 C60.0556645,71.3702417 60.1874991,71.1593063 60.3691406,70.9835242 C60.5507822,70.8077421 60.7499989,70.6583295 60.9667969,70.535282 C61.1835948,70.4122345 61.4091785,70.3096965 61.6435547,70.2276648 C61.8779309,70.1456332 62.1005849,70.0753214 62.3115234,70.0167273 C62.7802758,69.8175076 63.2812473,69.6270798 63.8144531,69.4454383 C64.3476589,69.2637967 64.8925753,69.1026655 65.4492188,68.9620398 C66.0058622,68.8214141 66.5771455,68.7305947 67.1630859,68.6895789 C67.7490264,68.6485631 68.3642546,68.7218045 69.0087891,68.9093055 C69.0439455,69.0264935 69.0966793,69.1378206 69.1669922,69.2432898 C69.237305,69.3487591 69.3105465,69.4542268 69.3867188,69.5596961 C69.462891,69.6651654 69.5302731,69.7677034 69.5888672,69.8673133 C69.6474612,69.9669231 69.6826171,70.0694612 69.6943359,70.1749305 C69.811524,70.2803997 69.9052731,70.3946564 69.9755859,70.5177039 C70.0458988,70.6407514 70.0576174,70.8018826 70.0107422,71.0011023 C69.8935541,71.0948528 69.7792974,71.1798129 69.6679688,71.2559851 C69.5566401,71.3321574 69.4365241,71.3995395 69.3076172,71.4581336 C68.8740213,71.3526643 68.4345725,71.3175084 67.9892578,71.3526648 C67.5439431,71.3878213 67.1455096,71.4171178 66.7939453,71.4405555 C66.688476,71.3350862 66.5625007,71.2823523 66.4160156,71.2823523 C66.2695305,71.2823523 66.1171883,71.3057896 65.9589844,71.3526648 L65.484375,71.4932898 C65.3261711,71.5401651 65.1767585,71.5518837 65.0361328,71.5284461 C64.9189447,71.6221965 64.7753915,71.6837194 64.6054688,71.7130164 C64.435546,71.7423134 64.2509776,71.7686803 64.0517578,71.792118 C64.040039,71.850712 64.0517576,71.8887976 64.0869141,71.9063758 C64.1220705,71.923954 64.1279298,71.9620395 64.1044922,72.0206336 C64.174805,72.1026652 64.2656244,72.1612584 64.3769531,72.1964148 C64.4882818,72.2315713 64.6054681,72.2667272 64.7285156,72.3018836 C64.8515631,72.33704 64.9599605,72.3809849 65.0537109,72.4337195 C65.1474614,72.4864542 65.2119139,72.5714142 65.2470703,72.6886023 C65.4228524,72.6886023 65.5751947,72.7296175 65.7041016,72.8116492 C65.8330085,72.8936809 65.9384762,72.9932892 66.0205078,73.1104773 C66.1025395,73.2276654 66.1640623,73.3536407 66.2050781,73.488407 C66.246094,73.6231733 66.2666016,73.7432893 66.2666016,73.8487586 C66.301758,73.942509 66.3427732,73.9835243 66.3896484,73.9718055 C66.4365237,73.9600866 66.4892575,73.9835239 66.5478516,74.042118 C66.583008,74.1944625 66.6708977,74.3497344 66.8115234,74.5079383 C66.9521491,74.6661422 67.0634762,74.838992 67.1455078,75.026493 C67.1689454,75.3194632 67.1865234,75.5802028 67.1982422,75.8087195 C67.209961,76.0372363 67.1689458,76.2686793 67.0751953,76.5030555 C66.8994132,76.9366514 66.6562516,77.3233663 66.3457031,77.6632117 C66.0351547,78.0030572 65.6835957,78.304812 65.2910156,78.5684851 C64.8984355,78.8321583 64.4794944,79.057742 64.0341797,79.245243 C63.588865,79.4327439 63.1552755,79.5909454 62.7333984,79.7198523 C62.6865232,79.7081335 62.6396487,79.7081335 62.5927734,79.7198523 C62.5459025,79.7315701 62.5341817,79.7022799 62.5576108,79.631981 L62.5539697,79.6351346 Z M77.8505859,69.6300086 C77.8623047,69.7120402 77.8652344,69.7735631 77.859375,69.8145789 C77.8535156,69.8555947 77.8476563,69.8936803 77.8417969,69.9288367 C77.8359375,69.9639931 77.8330078,70.0020787 77.8330078,70.0430945 C77.8330078,70.0841103 77.8447264,70.1456332 77.8681641,70.2276648 C77.6220691,70.6261043 77.3378922,70.8985625 77.015625,71.0450476 C76.6933578,71.1915328 76.3447284,71.2970004 75.9697266,71.3614539 C75.5947247,71.4259073 75.2109395,71.4932895 74.8183594,71.5636023 C74.4257793,71.6339152 74.0361347,71.7862574 73.6494141,72.0206336 C73.4970696,71.9620395 73.3593756,71.9620395 73.2363281,72.0206336 C73.1132806,72.0792276 72.9345715,72.0968056 72.7001953,72.073368 C72.6298825,72.1436808 72.5419927,72.193485 72.4365234,72.222782 C72.3310542,72.252079 72.2255865,72.2843053 72.1201172,72.3194617 C72.1669924,72.424931 72.1875,72.5333283 72.1816406,72.644657 C72.1757812,72.7559857 72.1904295,72.8468051 72.2255859,72.917118 C72.6357442,72.9522744 73.0898413,72.9464151 73.5878906,72.8995398 C74.08594,72.8526646 74.5751929,72.823368 75.0556641,72.8116492 C75.0673829,72.8702432 75.0615236,72.9083288 75.0380859,72.925907 C75.0146483,72.9434852 75.008789,72.9757115 75.0205078,73.0225867 C75.1025395,73.0811807 75.1845699,73.1544222 75.2666016,73.2423133 C75.3486332,73.3302043 75.4306637,73.4151644 75.5126953,73.4971961 C75.594727,73.5792277 75.6796871,73.6466099 75.7675781,73.6993445 C75.8554692,73.7520792 75.9580072,73.7725868 76.0751953,73.760868 C76.1220705,73.8546184 76.1542968,73.9571565 76.171875,74.0684851 C76.1894532,74.1798138 76.1748049,74.2940705 76.1279297,74.4112586 C75.9404288,74.5401655 75.7529306,74.6720001 75.5654297,74.8067664 C75.3779288,74.9415327 75.1816417,75.0616487 74.9765625,75.167118 C74.7714833,75.2725872 74.5546886,75.3575473 74.3261719,75.4220008 C74.0976551,75.4864542 73.8427748,75.5128211 73.5615234,75.5011023 L73.4296875,75.5011023 C73.4003905,75.5011023 73.3623049,75.4835244 73.3154297,75.448368 C73.2216792,75.506962 73.0898446,75.5245399 72.9199219,75.5011023 C72.7499992,75.4776647 72.6181645,75.4952427 72.5244141,75.5538367 C72.3955072,75.4952427 72.2402353,75.4688757 72.0585938,75.4747351 C71.8769522,75.4805945 71.715821,75.4600869 71.5751953,75.4132117 C71.3876944,75.6593067 71.2177742,75.9229759 71.0654297,76.2042273 C70.9130852,76.4854787 70.7783209,76.7843039 70.6611328,77.1007117 C71.0595723,77.1593057 71.3906237,77.182743 71.6542969,77.1710242 C71.9179701,77.1593054 72.166991,77.1387978 72.4013672,77.1095008 C72.6357434,77.0802037 72.8759753,77.0509072 73.1220703,77.0216101 C73.3681653,76.9923131 73.6787091,76.9835241 74.0537109,76.995243 C74.2880871,76.8663361 74.5664046,76.781376 74.8886719,76.7403601 C75.2109391,76.6993443 75.5068346,76.6319622 75.7763672,76.5382117 C75.8701177,76.5733681 75.9521481,76.634891 76.0224609,76.722782 C76.0927738,76.8106731 76.1601559,76.8927035 76.2246094,76.9688758 C76.2890628,77.045048 76.356445,77.1124302 76.4267578,77.1710242 C76.4970707,77.2296182 76.5849604,77.2530555 76.6904297,77.2413367 C76.7373049,77.2882119 76.7695312,77.3438754 76.7871094,77.4083289 C76.8046876,77.4727823 76.8193359,77.5343052 76.8310547,77.5928992 C76.8427735,77.6514932 76.8632811,77.7012974 76.8925781,77.7423133 C76.9218751,77.7833291 76.9716793,77.7979774 77.0419922,77.7862586 C76.8662101,78.1729793 76.6640636,78.4688747 76.4355469,78.6739539 C76.2070301,78.879033 75.9462905,79.0343049 75.6533203,79.1397742 C75.3603501,79.2452435 75.035158,79.3272739 74.6777344,79.385868 C74.3203107,79.444462 73.9248069,79.5147738 73.4912109,79.5968055 C73.3857417,79.6202431 73.2978519,79.6173134 73.2275391,79.5880164 C73.1572262,79.5587194 73.0751958,79.5440711 72.9814453,79.5440711 C72.7119127,79.6026651 72.3896503,79.655399 72.0146484,79.7022742 C71.6396466,79.7491494 71.258791,79.7667274 70.8720703,79.7550086 C70.4853496,79.7432898 70.1162127,79.6934856 69.7646484,79.6055945 C69.4130842,79.5177035 69.1259777,79.3624316 68.9033203,79.1397742 C68.8095698,79.0577425 68.748047,78.9610638 68.71875,78.8497351 C68.689453,78.7384065 68.6103522,78.6534464 68.4814453,78.5948523 C68.4697265,78.4425078 68.4462892,78.2725876 68.4111328,78.0850867 C68.3759764,77.8975858 68.3408205,77.7012987 68.3056641,77.4962195 C68.2705076,77.2911404 68.2441407,77.088994 68.2265625,76.8897742 C68.2089843,76.6905545 68.2177733,76.5089157 68.2529297,76.3448523 C68.2880861,76.1690702 68.3613276,76.0108687 68.4726563,75.870243 C68.5839849,75.7296173 68.6220705,75.577275 68.5869141,75.4132117 C68.6455081,75.4014929 68.680664,75.3692667 68.6923828,75.316532 C68.7041016,75.2637974 68.7509762,75.2432898 68.8330078,75.2550086 C68.9033207,75.04407 68.9794918,74.8448533 69.0615234,74.6573523 C69.1435551,74.4698514 69.2285152,74.2882126 69.3164063,74.1124305 C69.4042973,73.9366483 69.4921871,73.7579392 69.5800781,73.5762976 C69.6679692,73.3946561 69.7529293,73.1925097 69.8349609,72.9698523 C69.6708976,72.8175078 69.5507816,72.6505173 69.4746094,72.4688758 C69.3984371,72.2872342 69.3427736,72.1055954 69.3076172,71.9239539 C69.2724608,71.7423124 69.2431642,71.5548142 69.2197266,71.3614539 C69.1962889,71.1680936 69.1552737,70.9718065 69.0966797,70.7725867 C69.2138678,70.5968046 69.357421,70.4532513 69.5273438,70.3419226 C69.6972665,70.230594 69.8818349,70.1397746 70.0810547,70.0694617 C70.2802744,69.9991489 70.4970691,69.9405557 70.7314453,69.8936805 C70.9658215,69.8468052 71.2119128,69.7940714 71.4697266,69.7354773 C71.9384789,69.5831328 72.35742,69.4659465 72.7265625,69.3839148 C73.095705,69.3018832 73.4589826,69.234501 73.8164063,69.1817664 C74.1738299,69.1290318 74.5458965,69.0792276 74.9326172,69.0323523 C75.3193379,68.9854771 75.7587866,68.9151653 76.2509766,68.8214148 C76.3564458,68.9268841 76.4560542,68.979618 76.5498047,68.979618 C76.5966799,68.8741487 76.6523434,68.8419224 76.7167969,68.8829383 C76.7812503,68.9239541 76.8076172,68.8917279 76.7958984,68.7862586 C76.9130865,68.9854783 77.0624991,69.1524688 77.2441406,69.2872351 C77.4257822,69.4220014 77.6279286,69.5362581 77.8505859,69.6300086 Z M4.69042969,102.106571 C3.65917453,101.965945 3.03222768,101.421029 2.80957031,100.471805 L2.82714844,100.278446 L2.98535156,99.8038367 C3.04394561,99.604617 3.10839809,99.4083299 3.17871094,99.2149695 C3.24902379,99.0216092 3.36621012,98.8487593 3.53027344,98.6964148 C3.56542986,98.5909456 3.632812,98.4298144 3.73242188,98.2130164 C3.83203175,97.9962184 3.99902227,97.6710264 4.23339844,97.2374305 C4.42089938,96.897585 4.57031194,96.6280565 4.68164062,96.4288367 C4.79296931,96.229617 4.88378871,96.0772747 4.95410156,95.9718055 C4.83691348,95.7608669 4.67285262,95.5557908 4.46191406,95.3565711 C4.27441312,95.0050068 4.11328192,94.6680961 3.97851562,94.3458289 C3.84374933,94.0235617 3.74121129,93.7335255 3.67089844,93.4757117 C3.65917963,93.1944603 3.6123051,92.9073538 3.53027344,92.6143836 L3.42480469,92.1573523 C3.38964826,92.0050078 3.37207031,91.8468063 3.37207031,91.682743 C3.32519508,91.6007113 3.28417986,91.4952436 3.24902344,91.3663367 L3.28417969,91.1553992 C3.34277373,91.0616487 3.35742202,90.9356734 3.328125,90.7774695 C3.29882798,90.6192656 3.26074242,90.4581344 3.21386719,90.2940711 C3.17871076,90.1417266 3.14648452,89.9805954 3.1171875,89.8106726 C3.08789048,89.6407499 3.0791015,89.4737594 3.09082031,89.3096961 C3.10253912,89.1456328 3.14648399,88.9874312 3.22265625,88.8350867 C3.29882851,88.6827422 3.43066312,88.5538372 3.61816406,88.448368 L3.79394531,88.3253211 L3.96972656,88.4307898 C4.09863346,88.5128215 4.2216791,88.5831333 4.33886719,88.6417273 L4.69042969,88.8175086 C4.83105539,88.8878214 4.97167898,88.9610629 5.11230469,89.0372351 C5.25293039,89.1134074 5.40527262,89.1983675 5.56933594,89.292118 L5.74511719,89.4151648 L5.72753906,89.6085242 C5.72753906,89.6319618 5.73339838,89.6612584 5.74511719,89.6964148 C5.756836,89.7315713 5.77441395,89.7608678 5.79785156,89.7843055 L5.99121094,89.8370398 L6.00878906,90.0831336 L6.00878906,90.2940711 C6.00878906,90.3995404 6.01464838,90.4727818 6.02636719,90.5137976 C6.038086,90.5548135 6.06152326,90.5987583 6.09667969,90.6456336 L6.18457031,90.8741492 C6.18457031,91.0850878 6.20214826,91.2725859 6.23730469,91.4366492 C6.27246111,91.6007125 6.31347633,91.7647734 6.36035156,91.9288367 C6.41894561,92.0929 6.46582014,92.2598905 6.50097656,92.4298133 C6.53613299,92.599736 6.5419923,92.7843045 6.51855469,92.9835242 C6.58886754,92.9483678 6.65917934,92.8956339 6.72949219,92.8253211 C6.7529298,92.8018835 6.77929673,92.7784462 6.80859375,92.7550086 C6.83789077,92.731571 6.87011701,92.7081337 6.90527344,92.6846961 L8.13574219,91.0147742 L8.10058594,90.8038367 L8.54003906,90.3819617 C8.65722715,90.2882112 8.76855416,90.1915325 8.87402344,90.0919226 C8.97949271,89.9923128 9.06738246,89.8780561 9.13769531,89.7491492 L9.24316406,89.5909461 C9.77051045,88.8878176 10.4501912,88.4542282 11.2822266,88.2901648 L11.5810547,88.2198523 L11.6689453,88.5011023 C11.7275394,88.6651657 11.841796,88.8087189 12.0117188,88.9317664 C12.1816415,89.0548139 12.3662099,89.1749299 12.5654297,89.292118 L12.7587891,89.4151648 C12.8291019,89.5557905 12.8642578,89.6612582 12.8642578,89.7315711 C12.8642578,89.8018839 12.8583985,89.8604771 12.8466797,89.9073523 L12.9345703,90.135868 C12.8056634,90.4757134 12.6650398,90.718875 12.5126953,90.8653601 C12.3603508,91.0118453 12.2021493,91.1495392 12.0380859,91.2784461 C11.909179,91.3839154 11.7919927,91.4893831 11.6865234,91.5948523 C11.5810542,91.7003216 11.4990237,91.8175079 11.4404297,91.9464148 L11.2998047,92.1221961 C11.0068345,92.2745406 10.8193363,92.4971946 10.7373047,92.7901648 L10.6669922,93.0362586 L10.4033203,93.0362586 C10.3916015,93.0362586 10.3623049,93.0626255 10.3154297,93.1153601 C10.2685545,93.1680948 10.1982427,93.2940701 10.1044922,93.4932898 C9.99902291,93.6339155 9.92578146,93.7247349 9.88476562,93.7657508 L9.78808594,93.8624305 C9.76464832,93.9210245 9.74414071,93.9737583 9.7265625,94.0206336 C9.70898429,94.0675088 9.68847668,94.126102 9.66503906,94.1964148 L9.55957031,94.3370398 C9.45410104,94.4307903 9.37792992,94.5216097 9.33105469,94.6095008 C9.28417945,94.6973918 9.23144561,94.7999299 9.17285156,94.917118 C9.12597633,95.0225872 9.07324248,95.1309846 9.01464844,95.2423133 C8.95605439,95.353642 8.87402396,95.4620393 8.76855469,95.5675086 L8.80371094,95.760868 L8.66308594,95.8839148 C8.56933547,95.9659465 8.48730504,96.0684845 8.41699219,96.191532 C8.34667934,96.3145795 8.27636754,96.4405548 8.20605469,96.5694617 C8.13574184,96.7100874 8.05957072,96.850711 7.97753906,96.9913367 C7.8955074,97.1319624 7.79003971,97.2608674 7.66113281,97.3780555 C7.57910115,97.588994 7.5058597,97.7530549 7.44140625,97.870243 C7.3769528,97.987431 7.26855545,98.1280546 7.11621094,98.292118 C6.97558523,98.8546208 6.6416042,99.4581304 6.11425781,100.102665 C6.102539,100.231572 6.06445345,100.357547 6,100.480595 C5.93554655,100.603642 5.86816441,100.717899 5.79785156,100.823368 C5.77441395,100.870243 5.74804702,100.920047 5.71875,100.972782 C5.68945298,101.025517 5.66894537,101.063602 5.65722656,101.08704 L5.60449219,101.280399 C5.53417934,101.409306 5.46093788,101.514774 5.38476562,101.596805 C5.30859337,101.678837 5.23535191,101.755008 5.16503906,101.825321 C5.12988264,101.848759 5.0976564,101.878055 5.06835938,101.913212 C5.03906235,101.948368 5.01269543,101.977665 4.98925781,102.001102 L4.69042969,102.106571 Z M21.1962891,96.2530555 C21.1845703,96.3936812 21.1962889,96.5284454 21.2314453,96.6573523 C21.2666017,96.7862592 21.3105466,96.9122345 21.3632812,97.035282 C21.4160159,97.1583295 21.4658201,97.2843048 21.5126953,97.4132117 C21.5595705,97.5421186 21.5947264,97.6710236 21.6181641,97.7999305 C21.6416017,97.9639938 21.6416017,98.1427029 21.6181641,98.3360633 C21.5947264,98.5294236 21.5537112,98.7169217 21.4951172,98.8985633 C21.4365231,99.0802048 21.360352,99.2442657 21.2666016,99.3907508 C21.1728511,99.5372359 21.0615241,99.6456332 20.9326172,99.7159461 C20.7685539,99.9268846 20.5693371,100.090945 20.3349609,100.208134 C20.1005848,100.325322 19.8837901,100.465945 19.6845703,100.630009 C19.5556634,100.71204 19.4121102,100.770633 19.2539062,100.80579 C19.0957023,100.840946 18.9345711,100.876102 18.7705078,100.911259 C18.6416009,100.981571 18.4892587,101.054813 18.3134766,101.130985 C18.1376944,101.207157 17.9560556,101.277469 17.7685547,101.341923 C17.5810538,101.406376 17.3935556,101.453251 17.2060547,101.482548 C17.0185537,101.511845 16.8544929,101.520634 16.7138672,101.508915 C16.3623029,101.637822 16.0195329,101.722782 15.6855469,101.763798 C15.3515608,101.804813 14.9619163,101.778447 14.5166016,101.684696 C14.0947245,101.74329 13.7050799,101.725712 13.3476562,101.631962 C12.9902326,101.538211 12.6738295,101.388799 12.3984375,101.18372 C12.1230455,100.97864 11.8828135,100.732549 11.6777344,100.445438 C11.4726552,100.158327 11.3056647,99.8565727 11.1767578,99.5401648 C11.0830073,98.8721927 11.1064446,98.2657535 11.2470703,97.7208289 C11.387696,97.1759043 11.5898424,96.6720031 11.8535156,96.2091101 C12.1171888,95.7462172 12.4189436,95.3184871 12.7587891,94.925907 C13.0986345,94.5333269 13.4267562,94.1495417 13.7431641,93.7745398 C13.8134769,93.7979774 13.8691404,93.7950478 13.9101562,93.7657508 C13.9511721,93.7364537 13.9892576,93.6954385 14.0244141,93.6427039 C14.0595705,93.5899693 14.097656,93.5401651 14.1386719,93.4932898 C14.1796877,93.4464146 14.2294919,93.417118 14.2880859,93.4053992 C14.3701176,93.2296171 14.4902336,93.0977825 14.6484375,93.0098914 C14.8066414,92.9220003 14.9326167,92.796025 15.0263672,92.6319617 C15.1318365,92.6085241 15.2197262,92.5733682 15.2900391,92.526493 C15.3603519,92.4796177 15.4277341,92.4268839 15.4921875,92.3682898 C15.5566409,92.3096958 15.6240231,92.2540323 15.6943359,92.2012976 C15.7646488,92.148563 15.8466792,92.1104774 15.9404297,92.0870398 L15.9404297,91.8936805 C16.1513682,91.79993 16.3066401,91.6915326 16.40625,91.5684851 C16.5058599,91.4454377 16.6259759,91.2960251 16.7666016,91.120243 C16.8720708,91.1085241 16.9570309,91.1026648 17.0214844,91.1026648 C17.0859378,91.1026648 17.1826165,91.0909462 17.3115234,91.0675086 C17.4052739,90.9034453 17.490234,90.7803996 17.5664062,90.698368 C17.6425785,90.6163363 17.7568352,90.5284465 17.9091797,90.4346961 C18.0498054,90.5050089 18.2050773,90.5518835 18.375,90.5753211 C18.5449227,90.5987587 18.6943353,90.6749298 18.8232422,90.8038367 C18.834961,90.9210248 18.8701169,91.0118442 18.9287109,91.0762976 C18.987305,91.1407511 19.0517575,91.1993443 19.1220703,91.2520789 C19.1923832,91.3048135 19.2597653,91.360477 19.3242188,91.4190711 C19.3886722,91.4776651 19.4326171,91.5596956 19.4560547,91.6651648 C19.5029299,91.6768836 19.5351562,91.6710243 19.5527344,91.6475867 C19.5703126,91.6241491 19.6025388,91.6182898 19.6494141,91.6300086 C19.6845705,91.7940719 19.7255857,91.9024693 19.7724609,91.9552039 C19.8193362,92.0079385 19.8662107,92.1104766 19.9130859,92.2628211 C19.8544919,92.3800092 19.810547,92.5001252 19.78125,92.6231726 C19.751953,92.7462201 19.6787115,92.8370395 19.5615234,92.8956336 C19.5498046,92.9776652 19.5732419,93.0216101 19.6318359,93.0274695 C19.69043,93.0333289 19.7255859,93.0655552 19.7373047,93.1241492 C19.7490235,93.2296185 19.7314455,93.3057896 19.6845703,93.3526648 C19.9658217,93.8096984 20.2177723,94.293092 20.4404297,94.8028601 C20.6630871,95.3126283 20.9150377,95.7960219 21.1962891,96.2530555 Z M18.9990234,97.9229773 C19.0458987,97.7940704 19.1074215,97.6886027 19.1835938,97.6065711 C19.259766,97.5245394 19.3037109,97.4014938 19.3154297,97.2374305 C19.2568356,97.14368 19.2216797,97.0704385 19.2099609,97.0177039 C19.1982421,96.9649693 19.1923828,96.8800092 19.1923828,96.7628211 C18.934569,96.399538 18.711915,96.0098935 18.5244141,95.5938758 C18.3369131,95.1778581 18.1259777,94.7882135 17.8916016,94.4249305 C17.8681639,94.4718057 17.8271487,94.5186802 17.7685547,94.5655555 C17.7099606,94.6124307 17.6455082,94.6007121 17.5751953,94.5303992 C17.5517577,94.6241497 17.5107425,94.6915318 17.4521484,94.7325476 C17.3935544,94.7735635 17.3291019,94.7911414 17.2587891,94.785282 C17.1884762,94.7794226 17.1152348,94.7618447 17.0390625,94.7325476 C16.9628902,94.7032506 16.8955081,94.6651651 16.8369141,94.6182898 C16.4970686,94.8878224 16.1572283,95.1514917 15.8173828,95.4093055 C15.4775374,95.6671192 15.1728529,95.9659444 14.9033203,96.3057898 C14.8564451,96.3292274 14.8271485,96.3380164 14.8154297,96.332157 C14.8037109,96.3262976 14.768555,96.3350866 14.7099609,96.3585242 C14.6162105,96.5811816 14.5019538,96.783328 14.3671875,96.9649695 C14.2324212,97.1466111 14.1005866,97.3311795 13.9716797,97.5186805 C13.8427728,97.7061814 13.7314458,97.9053982 13.6376953,98.1163367 C13.5439448,98.3272753 13.491211,98.5733665 13.4794922,98.854618 C13.6787119,99.0186813 13.9130846,99.1182897 14.1826172,99.1534461 C14.4521498,99.1886025 14.7304673,99.1944618 15.0175781,99.1710242 C15.3046889,99.1475866 15.5859361,99.109501 15.8613281,99.0567664 C16.1367201,99.0040318 16.3916004,98.9776648 16.6259766,98.9776648 C17.1181665,98.8604767 17.5400373,98.7052049 17.8916016,98.5118445 C18.2431658,98.3184842 18.6123028,98.1221971 18.9990234,97.9229773 Z M32.6396484,91.5245398 C32.6630861,91.7823536 32.7041013,92.0050076 32.7626953,92.1925086 C32.8212894,92.3800095 32.8857418,92.5616483 32.9560547,92.7374305 C33.0146487,92.9014938 33.0703122,93.062625 33.1230469,93.2208289 C33.1757815,93.3790328 33.2138671,93.5694606 33.2373047,93.792118 C33.1435542,94.096807 33.0761721,94.3780542 33.0351562,94.635868 C32.9941404,94.8936817 32.9501955,95.1632103 32.9033203,95.4444617 C32.7158194,95.85462 32.5341806,96.2178976 32.3583984,96.5343055 C32.1826163,96.8507133 32.0419927,97.1261012 31.9365234,97.3604773 C31.8779294,97.4190714 31.8281252,97.4864535 31.7871094,97.5626258 C31.7460935,97.638798 31.7021487,97.7178988 31.6552734,97.7999305 C31.6318358,97.8350869 31.6025392,97.8878207 31.5673828,97.9581336 C31.5322264,98.0284464 31.5029298,98.075321 31.4794922,98.0987586 L31.1279297,97.9757117 L31.0576172,98.4151648 L30.8115234,98.4854773 L30.6357422,98.6964148 C30.4130848,99.0831355 30.1787122,99.4083276 29.9326172,99.6720008 C29.6865222,99.935674 29.4082047,100.170047 29.0976562,100.375126 C28.7871078,100.580205 28.4355488,100.770633 28.0429688,100.946415 C27.6503887,101.122197 27.2080103,101.315554 26.7158203,101.526493 C26.5166006,101.503055 26.3437507,101.488407 26.1972656,101.482548 C26.0507805,101.476688 25.9130866,101.467899 25.7841797,101.45618 C25.5615223,101.45618 25.2861345,101.438603 24.9580078,101.403446 C24.9228514,101.309696 24.8701175,101.245243 24.7998047,101.210087 C24.7294918,101.17493 24.6650394,101.157352 24.6064453,101.157352 C24.4072256,101.063602 24.257813,100.925908 24.1582031,100.744266 C24.0585933,100.562625 23.9619145,100.366338 23.8681641,100.155399 C23.80957,100.026492 23.7509769,99.9063763 23.6923828,99.7950476 C23.6337888,99.683719 23.5693363,99.5694623 23.4990234,99.4522742 L23.7978516,99.3643836 L23.4111328,98.9425086 C23.3876952,98.9073522 23.3583986,98.8751259 23.3232422,98.8458289 C23.2880858,98.8165319 23.2587892,98.7843056 23.2353516,98.7491492 L23.2177734,98.4678992 C23.182617,97.6593014 23.1679687,96.9180979 23.1738281,96.2442664 C23.1796875,95.5704349 23.2705069,94.969855 23.4462891,94.4425086 L23.4462891,94.2491492 C23.4814455,93.9913354 23.5166014,93.7774704 23.5517578,93.6075476 C23.5869142,93.4376249 23.6162108,93.2764937 23.6396484,93.1241492 C23.6748049,92.8663354 23.7275387,92.6261034 23.7978516,92.4034461 C23.9619149,92.3682897 24.0849605,92.3009075 24.1669922,92.2012976 C24.2490238,92.1016878 24.3193356,92.0108684 24.3779297,91.9288367 C24.541993,91.9171179 24.65332,91.9405552 24.7119141,91.9991492 C24.7705081,92.0577432 24.8291013,92.1514923 24.8876953,92.2803992 C24.9462894,92.3858685 25.0195308,92.5030548 25.1074219,92.6319617 C25.1953129,92.7608686 25.3271476,92.860477 25.5029297,92.9307898 C25.5263673,93.0245403 25.5585935,93.121219 25.5996094,93.2208289 C25.6406252,93.3204388 25.6845701,93.4288361 25.7314453,93.5460242 C25.8251958,93.745244 25.9101559,93.9532497 25.9863281,94.1700476 C26.0625004,94.3868456 26.1064453,94.5948513 26.1181641,94.7940711 C26.000976,95.0167284 25.9101566,95.2745384 25.8457031,95.5675086 C25.7812497,95.8604788 25.7402345,96.1563743 25.7226562,96.4552039 C25.705078,96.7540335 25.7109374,97.04114 25.7402344,97.316532 C25.7695314,97.591924 25.8193356,97.823367 25.8896484,98.010868 L25.9951172,98.2393836 L26.2939453,98.2042273 C26.6455096,98.1104769 26.9648423,98.0079388 27.2519531,97.8966101 C27.5390639,97.7852815 27.8056628,97.6534468 28.0517578,97.5011023 C28.2978528,97.3487578 28.5322254,97.1700487 28.7548828,96.9649695 C28.9775402,96.7598904 29.2119128,96.5225881 29.4580078,96.2530555 C29.7041028,95.9835229 29.9179678,95.6759087 30.0996094,95.3302039 C30.2812509,94.984499 30.4335931,94.6241511 30.5566406,94.2491492 C30.6796881,93.8741473 30.7734372,93.5020807 30.8378906,93.1329383 C30.9023441,92.7637958 30.9462889,92.4151665 30.9697266,92.0870398 C31.1689463,92.016727 31.2685547,91.8761034 31.2685547,91.6651648 L31.2333984,91.4718055 C31.1865232,91.4014926 31.1865232,91.3194622 31.2333984,91.2257117 C31.3037113,91.0030543 31.4677721,90.8331342 31.7255859,90.7159461 C31.9130869,90.8331342 32.0800774,90.9620391 32.2265625,91.1026648 C32.3730476,91.2432905 32.5107415,91.3839141 32.6396484,91.5245398 Z M35.6279297,99.698368 C35.4990228,100.16712 35.3847661,100.521609 35.2851562,100.761845 C35.1855464,101.00208 35.0361338,101.251101 34.8369141,101.508915 C34.6845696,101.485477 34.5791019,101.503055 34.5205078,101.561649 C34.4619138,101.620243 34.3974613,101.672977 34.3271484,101.719852 C34.2216792,101.74329 34.145508,101.74329 34.0986328,101.719852 C34.0517576,101.696415 34.0107424,101.670048 33.9755859,101.640751 C33.9404295,101.611454 33.8964846,101.582157 33.84375,101.55286 C33.7910154,101.523563 33.7119146,101.508915 33.6064453,101.508915 C33.5830077,101.415164 33.5566408,101.327275 33.5273438,101.245243 C33.4980467,101.163211 33.418946,101.133915 33.2900391,101.157352 C33.3134767,101.063602 33.319336,100.984501 33.3076172,100.920048 C33.2958984,100.855594 33.2812501,100.797001 33.2636719,100.744266 C33.2460937,100.691532 33.2314454,100.638798 33.2197266,100.586063 C33.2080078,100.533329 33.2138671,100.465946 33.2373047,100.383915 C33.1787106,100.383915 33.1318361,100.3429 33.0966797,100.260868 C33.0615233,100.178836 33.020508,100.096806 32.9736328,100.014774 C33.0087892,99.8038357 33.0439451,99.6046189 33.0791016,99.417118 C33.114258,99.229617 33.1582029,99.0538375 33.2109375,98.8897742 C33.2636721,98.7257109 33.307617,98.56165 33.3427734,98.3975867 C33.3779299,98.2335234 33.3603519,98.0636032 33.2900391,97.8878211 C33.3369143,97.9229775 33.3720702,97.9141885 33.3955078,97.8614539 C33.4189454,97.8087193 33.4365234,97.7384075 33.4482422,97.6505164 C33.459961,97.5626253 33.4658203,97.4747356 33.4658203,97.3868445 C33.4658203,97.2989535 33.459961,97.225712 33.4482422,97.167118 C33.5654303,96.8624289 33.662109,96.5489555 33.7382812,96.2266883 C33.8144535,95.904421 33.8847653,95.5850883 33.9492188,95.2686805 C34.0136722,94.9522726 34.0810543,94.6417289 34.1513672,94.3370398 C34.22168,94.0323508 34.3154291,93.7511036 34.4326172,93.4932898 C34.5615241,93.4698522 34.7050773,93.4845005 34.8632812,93.5372351 C35.0214852,93.5899698 35.1181639,93.6573519 35.1533203,93.7393836 C35.4580093,93.5050074 35.7275379,93.2208306 35.9619141,92.8868445 C36.1962902,92.5528585 36.4365222,92.2276664 36.6826172,91.9112586 C36.9287122,91.5948507 37.2011704,91.3136036 37.5,91.0675086 C37.7988296,90.8214136 38.1767555,90.6749307 38.6337891,90.6280555 C38.8681652,90.8038376 39.1289048,90.9825467 39.4160156,91.1641883 C39.7031264,91.3458298 39.9404287,91.5831321 40.1279297,91.8761023 C40.2216802,91.9229776 40.3007809,91.9727818 40.3652344,92.0255164 C40.4296878,92.078251 40.5087886,92.1339145 40.6025391,92.1925086 L40.6025391,92.4034461 C40.7431648,92.532353 40.8574214,92.6817655 40.9453125,92.8516883 C41.0332036,93.021611 41.1123043,93.2032498 41.1826172,93.3966101 L41.3935547,93.9766883 C41.4638675,94.1700486 41.545898,94.3546171 41.6396484,94.5303992 C41.6162108,94.5889932 41.6044922,94.6387974 41.6044922,94.6798133 C41.6044922,94.7208291 41.6132812,94.764774 41.6308594,94.8116492 C41.6484376,94.8585244 41.6630859,94.905399 41.6748047,94.9522742 C41.6865235,94.9991494 41.6865235,95.0636019 41.6748047,95.1456336 C41.6396483,95.6612612 41.4726577,96.0772726 41.1738281,96.3936805 C40.8749985,96.7100883 40.5146505,96.9708279 40.0927734,97.175907 C39.6708963,97.3809862 39.219729,97.553836 38.7392578,97.6944617 C38.2587867,97.8350874 37.8251972,97.9874296 37.4384766,98.151493 C37.4384766,98.1983682 37.4589842,98.2218055 37.5,98.2218055 C37.5410158,98.2218055 37.5556641,98.251102 37.5439453,98.3096961 C37.8251967,98.4854782 38.0478507,98.6261018 38.2119141,98.7315711 C38.3759774,98.8370404 38.5312493,98.9249301 38.6777344,98.995243 C38.8242195,99.0655558 38.982421,99.1270786 39.1523438,99.1798133 C39.3222665,99.2325479 39.5595688,99.2940707 39.8642578,99.3643836 C40.1689468,99.4346964 40.4062492,99.4903599 40.5761719,99.5313758 C40.7460946,99.5723916 40.9013665,99.6075475 41.0419922,99.6368445 C41.1826179,99.6661415 41.3261711,99.6895788 41.4726562,99.707157 C41.6191414,99.7247352 41.8271471,99.7452428 42.0966797,99.7686805 C42.202149,99.8741497 42.2929684,100.000125 42.3691406,100.14661 C42.4453129,100.293095 42.4951171,100.439578 42.5185547,100.586063 C42.5419923,100.732548 42.5478516,100.873172 42.5361328,101.007938 C42.524414,101.142705 42.4833988,101.251102 42.4130859,101.333134 C42.4248047,101.36829 42.4511717,101.382938 42.4921875,101.377079 C42.5332033,101.371219 42.5771482,101.374149 42.6240234,101.385868 C42.5537106,101.432743 42.4951174,101.491336 42.4482422,101.561649 L42.3076172,101.772587 C42.260742,101.8429 42.2080081,101.904422 42.1494141,101.957157 C42.09082,102.009892 42.0087896,102.042118 41.9033203,102.053837 C41.5400372,102.194462 41.0830106,102.203251 40.5322266,102.080204 C39.9814426,101.957156 39.2841839,101.731573 38.4404297,101.403446 C38.0185526,101.239383 37.6757826,101.09583 37.4121094,100.972782 C37.1484362,100.849735 36.9199228,100.726689 36.7265625,100.603641 C36.5332022,100.480594 36.3574227,100.348759 36.1992188,100.208134 C36.0410148,100.067508 35.8505871,99.8975877 35.6279297,99.698368 Z M38.1416016,93.6690711 C38.0126947,93.856572 37.8691414,94.0264922 37.7109375,94.1788367 C37.5527336,94.3311812 37.4003914,94.4864531 37.2539062,94.644657 C37.1074211,94.8028609 36.9755865,94.9786404 36.8583984,95.1720008 C36.7412104,95.3653611 36.6591799,95.5909448 36.6123047,95.8487586 C37.022463,95.8018833 37.4501931,95.6876267 37.8955078,95.5059851 C38.3408225,95.3243436 38.7626933,95.1514938 39.1611328,94.9874305 C39.1142576,94.6241474 38.9882823,94.3311816 38.7832031,94.1085242 C38.578124,93.8858668 38.3642589,93.7393839 38.1416016,93.6690711 Z M49.9892578,96.5694617 C50.0009766,96.5225865 50.0273435,96.5020789 50.0683594,96.5079383 C50.1093752,96.5137977 50.1474608,96.510868 50.1826172,96.4991492 C50.0888667,96.4053987 50.0302736,96.2794234 50.0068359,96.1212195 C49.9833983,95.9630156 49.9248052,95.831181 49.8310547,95.7257117 C49.8544923,95.6671177 49.8749999,95.6085245 49.8925781,95.5499305 C49.9101563,95.4913364 49.9599605,95.4678991 50.0419922,95.479618 C50.0068358,95.2218042 50.0126951,94.9815722 50.0595703,94.7589148 C50.1064455,94.5362575 50.179687,94.3253221 50.2792969,94.1261023 C50.3789067,93.9268826 50.4960931,93.7305955 50.6308594,93.5372351 C50.7656257,93.3438748 50.8974603,93.1475877 51.0263672,92.948368 C51.1318365,92.9249303 51.1962889,92.9337193 51.2197266,92.9747351 C51.2431642,93.015751 51.2841794,93.006962 51.3427734,92.948368 C51.5302744,92.8194611 51.6591793,92.6759078 51.7294922,92.5177039 C51.799805,92.3595 51.8349609,92.1866501 51.8349609,91.9991492 C51.9404302,91.6944602 52.0605462,91.3927054 52.1953125,91.0938758 C52.3300788,90.7950461 52.4853507,90.5167286 52.6611328,90.2589148 C52.8369149,90.001101 53.0244131,89.7755174 53.2236328,89.582157 C53.4228526,89.3887967 53.6396473,89.2393841 53.8740234,89.1339148 C54.0380868,88.9932891 54.2460925,88.8643842 54.4980469,88.7471961 C54.7500013,88.630008 55.0195298,88.5391886 55.3066406,88.4747351 C55.5937514,88.4102817 55.8896469,88.3751258 56.1943359,88.3692664 C56.499025,88.363407 56.7802721,88.3956332 57.0380859,88.4659461 C57.09668,88.4893837 57.1318359,88.4747354 57.1435547,88.4220008 C57.1552735,88.3692661 57.1845701,88.3428992 57.2314453,88.3428992 C57.8173857,88.4132121 58.3417946,88.5303984 58.8046875,88.6944617 C59.2675804,88.858525 59.6630843,89.0870384 59.9912109,89.3800086 C60.2138683,89.7315728 60.4248037,90.1094987 60.6240234,90.5137976 C60.8232432,90.9180965 60.9785151,91.3399673 61.0898438,91.7794226 C61.2011724,92.218878 61.2509766,92.672975 61.2392578,93.1417273 C61.227539,93.6104797 61.1279306,94.079225 60.9404297,94.5479773 C60.5302714,95.0636049 60.0322295,95.4766867 59.4462891,95.7872351 C58.8603486,96.0977836 58.2304721,96.3555935 57.5566406,96.5606726 C56.8828091,96.7657518 56.1855505,96.9327423 55.4648438,97.0616492 C54.744137,97.1905561 54.0439487,97.3311797 53.3642578,97.4835242 C53.3759766,97.799932 53.3759766,98.1368427 53.3642578,98.4942664 C53.352539,98.8516901 53.3144534,99.2091084 53.25,99.566532 C53.1855466,99.9239557 53.0917975,100.272585 52.96875,100.61243 C52.8457025,100.952276 52.678712,101.268679 52.4677734,101.561649 C52.2333973,101.54993 51.9902356,101.573368 51.7382812,101.631962 C51.4863269,101.690556 51.2607432,101.749149 51.0615234,101.807743 C50.967773,101.749149 50.8769536,101.693485 50.7890625,101.640751 C50.7011714,101.588016 50.5927741,101.55579 50.4638672,101.544071 C50.4990236,101.403445 50.4667974,101.256962 50.3671875,101.104618 C50.2675776,100.952273 50.1679692,100.802861 50.0683594,100.656376 C49.9687495,100.509891 49.904297,100.363408 49.875,100.216923 C49.845703,100.070438 49.9130851,99.9386029 50.0771484,99.8214148 C49.983398,99.7393832 49.9365234,99.6104782 49.9365234,99.4346961 C49.9833987,99.4815713 50.0419918,99.5050086 50.1123047,99.5050086 C50.0888671,99.29407 50.115234,99.0421194 50.1914062,98.7491492 C50.2675785,98.456179 50.332031,98.1661428 50.3847656,97.879032 C50.4375003,97.5919212 50.4462892,97.328252 50.4111328,97.0880164 C50.3759764,96.8477808 50.2353528,96.674931 49.9892578,96.5694617 Z M54.5595703,92.4561805 C54.5126951,92.5850874 54.4746095,92.699344 54.4453125,92.7989539 C54.4160155,92.8985638 54.3837892,92.9893832 54.3486328,93.0714148 C54.3134764,93.1534465 54.2753908,93.2354769 54.234375,93.3175086 C54.1933592,93.3995402 54.1494143,93.4932893 54.1025391,93.5987586 C54.1259767,93.6690714 54.1728512,93.7218053 54.2431641,93.7569617 C54.3134769,93.7921181 54.3603514,93.844852 54.3837891,93.9151648 C54.5478524,93.8331332 54.7119132,93.7716103 54.8759766,93.7305945 C55.0400399,93.6895787 55.2041007,93.6573524 55.3681641,93.6339148 C55.5322274,93.6104772 55.6962882,93.5811806 55.8603516,93.5460242 C56.0244149,93.5108678 56.1943351,93.4522746 56.3701172,93.370243 C56.5458993,93.2882113 56.7304678,93.2208292 56.9238281,93.1680945 C57.1171885,93.1153599 57.3076162,93.0596964 57.4951172,93.0011023 C57.6826181,92.9425083 57.8642569,92.8751261 58.0400391,92.7989539 C58.2158212,92.7227816 58.3681634,92.6202436 58.4970703,92.4913367 C58.333007,92.3389922 58.0869157,92.2042279 57.7587891,92.0870398 C57.4306624,91.9698517 57.0761738,91.8966103 56.6953125,91.8673133 C56.3144512,91.8380162 55.9335957,91.8643832 55.5527344,91.9464148 C55.1718731,92.0284465 54.8408217,92.1983667 54.5595703,92.4561805 Z M65.3525391,101.333134 C65.0244124,101.438603 64.6669941,101.544071 64.2802734,101.64954 C63.8935528,101.755009 63.5068379,101.807743 63.1201172,101.807743 C62.5341768,101.807743 62.0712908,101.66126 61.7314453,101.36829 C61.6728513,101.239383 61.6201174,101.151493 61.5732422,101.104618 C61.5380858,101.057743 61.5058595,101.007939 61.4765625,100.955204 C61.4472655,100.902469 61.4267579,100.829228 61.4150391,100.735477 C61.2744134,100.571414 61.1630863,100.380986 61.0810547,100.164188 C60.999023,99.9473903 60.9433595,99.7247363 60.9140625,99.4962195 C60.8847655,99.2677028 60.8789062,99.0362598 60.8964844,98.8018836 C60.9140626,98.5675074 60.9521481,98.3448534 61.0107422,98.1339148 C61.0341798,98.0870396 61.0488281,98.0401651 61.0546875,97.9932898 C61.0605469,97.9464146 61.0693359,97.8936807 61.0810547,97.8350867 C61.1279299,97.6475858 61.1777341,97.465947 61.2304687,97.2901648 C61.2832034,97.1143827 61.3564448,96.9620405 61.4501953,96.8331336 C61.4033201,96.7276643 61.4033201,96.610478 61.4501953,96.4815711 C61.4970705,96.3526642 61.5498044,96.2354779 61.6083984,96.1300086 C61.7724618,95.6846939 61.9101557,95.3067679 62.0214844,94.9962195 C62.1328131,94.6856711 62.2470697,94.378057 62.3642578,94.073368 C62.5634776,93.5460216 62.7509757,93.0245424 62.9267578,92.5089148 C63.1025399,91.9932873 63.2607415,91.4366522 63.4013672,90.838993 C63.4951177,90.7803989 63.5654295,90.7393837 63.6123047,90.7159461 C63.6826175,90.6925085 63.7412107,90.6749305 63.7880859,90.6632117 C63.9990245,90.768681 64.2451158,90.871219 64.5263672,90.9708289 C64.8076186,91.0704388 65.0419912,91.120243 65.2294922,91.120243 C65.3232427,91.178837 65.3818358,91.2227819 65.4052734,91.2520789 C65.4287111,91.2813759 65.4521483,91.3077428 65.4755859,91.3311805 C65.6044928,91.483525 65.7158198,91.6387969 65.8095703,91.7970008 C65.9033208,91.9552047 65.9326174,92.1632104 65.8974609,92.4210242 C65.8271481,92.5264935 65.7744142,92.5792273 65.7392578,92.5792273 C65.6806638,92.8136035 65.6191409,93.0128203 65.5546875,93.1768836 C65.4902341,93.3409469 65.4228519,93.5050078 65.3525391,93.6690711 C65.2705074,93.8448532 65.1943363,94.0206327 65.1240234,94.1964148 C65.0537106,94.372197 64.9951174,94.5889917 64.9482422,94.8468055 C64.901367,94.9053995 64.8691407,94.9581333 64.8515625,95.0050086 C64.8339843,95.0518838 64.8134767,95.1046177 64.7900391,95.1632117 C64.7666014,95.2218057 64.7402345,95.2833286 64.7109375,95.347782 C64.6816405,95.4122355 64.6376956,95.467899 64.5791016,95.5147742 C64.5439451,95.8194632 64.4882816,96.0655545 64.4121094,96.2530555 C64.3359371,96.4405564 64.2568363,96.6280545 64.1748047,96.8155555 C64.034179,97.1554009 63.9082037,97.4952413 63.796875,97.8350867 C63.6855463,98.1749322 63.6181642,98.561647 63.5947266,98.995243 C63.6533206,98.9718053 63.7089841,98.9600867 63.7617188,98.9600867 L63.9111328,98.9600867 C64.0166021,98.9600867 64.1396477,98.9776647 64.2802734,99.0128211 C64.6318377,98.8253201 65.0156229,98.7139931 65.4316406,98.6788367 C65.8476583,98.6436803 66.2607401,98.620243 66.6708984,98.6085242 L67.1630859,98.6085242 C67.3271493,98.6085242 67.4794915,98.5968056 67.6201172,98.573368 C67.7255865,98.631962 67.7929686,98.6641882 67.8222656,98.6700476 C67.8515626,98.675907 67.8955075,98.6788367 67.9541016,98.6788367 C68.0361332,98.6788367 68.106445,98.684696 68.1650391,98.6964148 C68.3056648,98.8253217 68.440429,98.9190708 68.5693359,98.9776648 C68.6982428,99.0362589 68.8330071,99.0889927 68.9736328,99.135868 C69.1025397,99.1827432 69.228515,99.2325474 69.3515625,99.285282 C69.47461,99.3380167 69.594726,99.4112581 69.7119141,99.5050086 L69.8349609,100.260868 C69.9169926,100.366337 69.9521485,100.436649 69.9404297,100.471805 C69.9404297,100.565556 69.9169924,100.635868 69.8701172,100.682743 L69.9052734,100.876102 C69.7294913,100.911259 69.6093753,100.952274 69.5449219,100.999149 C69.4804684,101.046024 69.4189456,101.098758 69.3603516,101.157352 C69.2666011,101.169071 69.199219,101.17493 69.1582031,101.17493 L69.0439453,101.17493 C68.879882,101.17493 68.6806652,101.204227 68.4462891,101.262821 C68.1298812,101.157352 67.8017595,101.104618 67.4619141,101.104618 C67.3330072,101.104618 67.1982429,101.110477 67.0576172,101.122196 L66.6357422,101.157352 C66.4951165,101.18079 66.3515632,101.198368 66.2050781,101.210087 C66.058593,101.221806 65.9091804,101.227665 65.7568359,101.227665 L65.3525391,101.333134 Z M79.6083984,100.04993 C79.5380856,100.24915 79.4355475,100.451297 79.3007812,100.656376 C79.166015,100.861455 79.0078134,101.043094 78.8261719,101.201298 C78.6445303,101.359502 78.4423839,101.491336 78.2197266,101.596805 C77.9970692,101.702275 77.7626965,101.760868 77.5166016,101.772587 C77.3642571,101.73743 77.261719,101.699345 77.2089844,101.658329 C77.1562497,101.617313 77.1005862,101.579228 77.0419922,101.544071 C77.0068358,101.520633 76.9746095,101.500126 76.9453125,101.482548 C76.9160155,101.464969 76.8896486,101.450321 76.8662109,101.438602 L76.6552734,101.350712 L76.7255859,101.122196 C76.7490236,101.028446 76.7431642,100.955204 76.7080078,100.90247 C76.6728514,100.849735 76.6025396,100.776493 76.4970703,100.682743 L76.3916016,100.577274 C76.3564451,100.542118 76.3271486,100.506962 76.3037109,100.471805 L76.0048828,100.137821 L76.4794922,100.014774 C76.7724624,99.9327425 76.9687495,99.8272749 77.0683594,99.698368 C77.1679692,99.5694611 77.2060548,99.3526664 77.1826172,99.0479773 C76.948241,99.0011021 76.7519539,98.9952428 76.59375,99.0303992 C76.4355461,99.0655556 76.2744149,99.1065708 76.1103516,99.1534461 C75.899413,99.2120401 75.685548,99.2618443 75.46875,99.3028601 C75.251952,99.343876 75.0146497,99.3643836 74.7568359,99.3643836 C74.6630855,99.3643836 74.5751957,99.3614539 74.4931641,99.3555945 C74.4111324,99.3497351 74.3232427,99.3409461 74.2294922,99.3292273 L74.0537109,99.2940711 C74.0302733,99.1651642 74.0068361,99.0919227 73.9833984,99.0743445 C73.9599608,99.0567663 73.9365236,99.0362587 73.9130859,99.0128211 C73.8544919,98.954227 73.7929691,98.8751263 73.7285156,98.7755164 C73.6640622,98.6759065 73.6494139,98.5499312 73.6845703,98.3975867 C73.6259763,98.2921174 73.5908204,98.1866497 73.5791016,98.0811805 C73.5087887,98.2218062 73.4560549,98.3682891 73.4208984,98.5206336 L73.3505859,98.6964148 L73.1748047,98.7315711 C73.1513671,98.7432899 73.1337891,98.7696568 73.1220703,98.8106726 C73.1103515,98.8516885 73.1044922,98.8839147 73.1044922,98.9073523 L73.0166016,99.2061805 C72.9931639,99.2296181 72.9697267,99.2501257 72.9462891,99.2677039 C72.9228514,99.2852821 72.8994142,99.3057897 72.8759766,99.3292273 C72.8525389,99.4346966 72.8232424,99.5401643 72.7880859,99.6456336 C72.7529295,99.7511029 72.7177736,99.8507112 72.6826172,99.9444617 C72.6240231,100.096806 72.574219,100.246219 72.5332031,100.392704 C72.4921873,100.539189 72.477539,100.682742 72.4892578,100.823368 L72.4189453,101.016727 C72.3603513,101.08704 72.2958988,101.142704 72.2255859,101.18372 C72.1552731,101.224735 72.0849613,101.262821 72.0146484,101.297977 C71.9912108,101.321415 71.9589846,101.341923 71.9179688,101.359501 C71.8769529,101.377079 71.8447267,101.391727 71.8212891,101.403446 L71.7685547,101.596805 L71.5576172,101.631962 C71.4287103,101.655399 71.3378909,101.672977 71.2851562,101.684696 C71.2324216,101.696415 71.1708988,101.702274 71.1005859,101.702274 L70.9248047,101.684696 C70.7958978,101.579227 70.6962894,101.494267 70.6259766,101.429813 C70.5556637,101.36536 70.4736333,101.303837 70.3798828,101.245243 C70.2744135,101.104617 70.2158204,100.99915 70.2041016,100.928837 C70.1923828,100.858524 70.1806641,100.794071 70.1689453,100.735477 C70.1455077,100.665164 70.1308594,100.606571 70.125,100.559696 C70.1191406,100.512821 70.1044923,100.477665 70.0810547,100.454227 L69.8525391,100.24329 L70.0458984,100.085087 L70.0634766,99.7862586 C70.2978527,99.1885993 70.5468737,98.6143863 70.8105469,98.0636023 C71.0742201,97.5128183 71.3466783,96.950324 71.6279297,96.3761023 C71.7216802,96.1886014 71.8124996,96.0011033 71.9003906,95.8136023 C71.9882817,95.6261014 72.0791011,95.4386033 72.1728516,95.2511023 C72.1611328,95.2159459 72.1552734,95.1749307 72.1552734,95.1280555 C72.1552734,95.0811802 72.1669921,95.0284464 72.1904297,94.9698523 C72.3193366,94.7706326 72.4248043,94.5919234 72.5068359,94.4337195 C72.5888676,94.2755156 72.670898,94.1143844 72.7529297,93.9503211 C72.8466802,93.7511013 72.9433589,93.5577439 73.0429688,93.370243 C73.1425786,93.182742 73.2685539,92.9893846 73.4208984,92.7901648 L73.7021484,92.667118 C73.7373049,92.6553991 73.7783201,92.6407509 73.8251953,92.6231726 C73.8720705,92.6055944 73.9248044,92.5968055 73.9833984,92.5968055 L74.2470703,92.6319617 C74.575197,92.4796172 74.8623035,92.2657521 75.1083984,91.9903601 C75.3544934,91.7149681 75.606444,91.3839168 75.8642578,90.9971961 L76.0400391,90.7511023 L76.2685547,90.8917273 C76.3271487,90.9268838 76.4091792,90.95911 76.5146484,90.988407 C76.6201177,91.017704 76.7314447,91.0499303 76.8486328,91.0850867 C77.0595714,91.1319619 77.2587881,91.1846958 77.4462891,91.2432898 C77.63379,91.3018839 77.7861322,91.3897736 77.9033203,91.5069617 C77.9736332,91.6944626 78.0146484,91.8350862 78.0263672,91.9288367 C78.038086,92.0225872 78.0556639,92.1163362 78.0791016,92.2100867 C78.114258,92.4093065 78.1464842,92.6085232 78.1757812,92.807743 C78.2050783,93.0069627 78.2255859,93.2296167 78.2373047,93.4757117 C78.2958987,93.6749315 78.3457029,93.8712186 78.3867188,94.0645789 C78.4277346,94.2579392 78.4658201,94.4542263 78.5009766,94.6534461 C78.5595706,94.9346975 78.6181638,95.2071557 78.6767578,95.4708289 C78.7353519,95.7345021 78.811523,95.983523 78.9052734,96.2178992 C78.9990239,96.2178992 79.0576171,96.2237585 79.0810547,96.2354773 C79.1396487,96.2120397 79.2011716,96.1944618 79.265625,96.182743 C79.3300784,96.1710241 79.4033199,96.1593055 79.4853516,96.1475867 L79.6787109,96.1300086 L79.7490234,96.3057898 C79.7607422,96.3643839 79.8193354,96.422977 79.9248047,96.4815711 C80.0771492,96.4932899 80.1884762,96.5255161 80.2587891,96.5782508 C80.3291019,96.6309854 80.3935544,96.6866489 80.4521484,96.745243 C80.4990237,96.7921182 80.5458982,96.8272741 80.5927734,96.8507117 L80.8564453,96.9561805 L80.7158203,97.2198523 C80.5986322,97.4307909 80.4316417,97.6329373 80.2148438,97.8262976 C79.9980458,98.019658 79.7548842,98.1807892 79.4853516,98.3096961 C79.4970704,98.3800089 79.5058593,98.4473911 79.5117188,98.5118445 C79.5175782,98.576298 79.5322264,98.6436801 79.5556641,98.713993 C79.5908205,98.9132127 79.6201171,99.1182888 79.6435547,99.3292273 C79.6669923,99.5401659 79.6669923,99.7569606 79.6435547,99.979618 L79.6083984,100.04993 Z M74.5283203,97.0089148 C74.8798846,96.9854772 75.1992173,96.9591103 75.4863281,96.9298133 C75.7734389,96.9005162 76.0927717,96.8507121 76.4443359,96.7803992 C76.3623043,96.4288349 76.2744145,96.0626277 76.1806641,95.6817664 C76.0869136,95.3009051 75.9873052,94.9229792 75.8818359,94.5479773 L75.7763672,94.7237586 C75.541991,94.9698536 75.3164073,95.2452414 75.0996094,95.5499305 C74.8828114,95.8546195 74.6982429,96.141726 74.5458984,96.4112586 L74.3349609,96.7276648 C74.2646481,96.8331341 74.2001956,96.9386018 74.1416016,97.0440711 C74.2119144,97.0323523 74.2792966,97.026493 74.34375,97.026493 C74.4082034,97.026493 74.4697263,97.0206336 74.5283203,97.0089148 Z M84.3720703,98.3272742 C84.266601,98.3507118 84.1904299,98.4122346 84.1435547,98.5118445 C84.0966795,98.6114544 84.0527346,98.7139924 84.0117188,98.8194617 C83.9707029,98.924931 83.9296877,99.0216097 83.8886719,99.1095008 C83.847656,99.1973918 83.7861332,99.2413367 83.7041016,99.2413367 C83.6923828,99.3350872 83.6601565,99.4171176 83.6074219,99.4874305 C83.5546872,99.5577433 83.504883,99.6309848 83.4580078,99.707157 C83.4111326,99.7833293 83.3759767,99.8653597 83.3525391,99.9532508 C83.3291014,100.041142 83.3408201,100.14368 83.3876953,100.260868 C83.2939448,100.331181 83.2353517,100.430789 83.2119141,100.559696 C83.1884764,100.688603 83.1621095,100.811649 83.1328125,100.928837 C83.1035155,101.046025 83.0537113,101.145633 82.9833984,101.227665 C82.9130856,101.309696 82.7841806,101.344852 82.5966797,101.333134 C82.5615233,101.380009 82.5556639,101.409305 82.5791016,101.421024 C82.6025392,101.432743 82.6201171,101.473758 82.6318359,101.544071 C82.502929,101.520633 82.4062503,101.529422 82.3417969,101.570438 C82.2773434,101.611454 82.1982427,101.637821 82.1044922,101.64954 C81.8818348,101.579227 81.6972664,101.456181 81.5507812,101.280399 C81.4042961,101.104617 81.2753912,100.90833 81.1640625,100.691532 C81.0527338,100.474734 80.9531254,100.25501 80.8652344,100.032352 C80.7773433,99.809695 80.6923832,99.6163375 80.6103516,99.4522742 C80.645508,99.3233673 80.6513673,99.197392 80.6279297,99.0743445 C80.6044921,98.951297 80.5634769,98.848759 80.5048828,98.7667273 C81.0791044,97.5479712 81.7060513,96.247203 82.3857422,94.8643836 C83.0654331,93.4815642 83.7099579,92.1163434 84.3193359,90.7686805 C84.5888685,90.8741497 84.8554674,90.9942657 85.1191406,91.129032 C85.3828138,91.2637983 85.6230458,91.4190702 85.8398438,91.5948523 C86.0566417,91.7706345 86.2412102,91.9727809 86.3935547,92.2012976 C86.5458992,92.4298144 86.6455076,92.6846947 86.6923828,92.9659461 C86.6689452,93.0362589 86.6425783,93.0626259 86.6132812,93.0450476 C86.5839842,93.0274694 86.5576173,93.0362584 86.5341797,93.0714148 C86.5810549,93.1300089 86.6074218,93.1710241 86.6132812,93.1944617 C86.6191407,93.2178993 86.6191407,93.2413366 86.6132812,93.2647742 C86.6074218,93.2882118 86.6044922,93.3204381 86.6044922,93.3614539 C86.6044922,93.4024697 86.6220701,93.4581332 86.6572266,93.5284461 C86.6103513,93.5167273 86.5781251,93.5225866 86.5605469,93.5460242 C86.5429687,93.5694618 86.5048831,93.5694618 86.4462891,93.5460242 C86.4931643,93.6749311 86.5078126,93.7803988 86.4902344,93.8624305 C86.4726562,93.9444621 86.4462892,94.0177036 86.4111328,94.082157 C86.3759764,94.1466105 86.3466798,94.2169223 86.3232422,94.2930945 C86.2998046,94.3692668 86.3056639,94.4659455 86.3408203,94.5831336 C86.3056639,94.5831336 86.279297,94.5919226 86.2617188,94.6095008 C86.2441405,94.627079 86.2294922,94.6446569 86.2177734,94.6622351 C86.2060546,94.6798134 86.1914063,94.6973913 86.1738281,94.7149695 C86.1562499,94.7325477 86.129883,94.7354774 86.0947266,94.7237586 C86.129883,94.9815724 86.1416016,95.2393823 86.1298828,95.4971961 C86.118164,95.7550099 86.109375,96.0157495 86.1035156,96.2794226 C86.0976562,96.5430958 86.1005859,96.8184837 86.1123047,97.1055945 C86.1240235,97.3927053 86.1650387,97.6886008 86.2353516,97.9932898 C86.6572287,97.7471949 86.9941394,97.4307918 87.2460938,97.0440711 C87.4980481,96.6573504 87.7031242,96.223761 87.8613281,95.7432898 C88.019532,95.2628187 88.139648,94.7471988 88.2216797,94.1964148 C88.3037113,93.6456308 88.3916011,93.0831365 88.4853516,92.5089148 C88.5908208,92.4034456 88.6728513,92.2745406 88.7314453,92.1221961 C88.7900394,91.9698516 88.8427732,91.8087204 88.8896484,91.6387976 L89.0302734,91.129032 C89.0771487,90.9591093 89.1357418,90.8038374 89.2060547,90.6632117 C89.3818368,90.6866493 89.5312494,90.7423128 89.6542969,90.8302039 C89.7773444,90.918095 89.891601,91.011844 89.9970703,91.1114539 C90.1025396,91.2110638 90.2138666,91.3048128 90.3310547,91.3927039 C90.4482428,91.480595 90.5947257,91.5362585 90.7705078,91.5596961 C90.9111335,91.7589158 91.0400385,91.9522733 91.1572266,92.1397742 C91.2744146,92.3272751 91.3505858,92.5264919 91.3857422,92.7374305 C91.3271481,92.8311809 91.2832033,92.9366486 91.2539062,93.0538367 C91.2246092,93.1710248 91.192383,93.2882111 91.1572266,93.4053992 C91.1220701,93.5225873 91.0751956,93.6309846 91.0166016,93.7305945 C90.9580075,93.8302044 90.8759771,93.9151645 90.7705078,93.9854773 C90.7353514,94.2901664 90.6914065,94.5684839 90.6386719,94.8204383 C90.5859372,95.0723927 90.5332034,95.3214136 90.4804688,95.5675086 C90.4277341,95.8136036 90.3837892,96.0684838 90.3486328,96.332157 C90.3134764,96.5958302 90.3017578,96.8858664 90.3134766,97.2022742 C90.2197261,97.4718068 90.1201177,97.7589133 90.0146484,98.0636023 C89.9091792,98.3682914 89.8271487,98.6436792 89.7685547,98.8897742 C89.5810537,99.0421187 89.4345708,99.2237575 89.3291016,99.4346961 C89.2236323,99.6456346 89.1123053,99.85657 88.9951172,100.067509 C88.948242,100.114384 88.9189454,100.126102 88.9072266,100.102665 C88.8955078,100.079227 88.8544925,100.061649 88.7841797,100.04993 C88.7958985,100.096806 88.7958985,100.131962 88.7841797,100.155399 C88.7724609,100.178837 88.7578126,100.199344 88.7402344,100.216923 C88.7226562,100.234501 88.7109375,100.260868 88.7050781,100.296024 C88.6992187,100.331181 88.7080077,100.378055 88.7314453,100.436649 C88.567382,100.506962 88.4208991,100.60657 88.2919922,100.735477 C88.1630853,100.864384 88.0253914,100.981571 87.8789062,101.08704 C87.7324211,101.192509 87.5566417,101.262821 87.3515625,101.297977 C87.1464833,101.333134 86.8798845,101.292119 86.5517578,101.17493 C86.0712867,100.823366 85.6464862,100.419073 85.2773438,99.9620398 C84.9082013,99.5050063 84.6064465,98.9600899 84.3720703,98.3272742 Z" id="ChooseYourPlan" fill="#F75889" fill-rule="nonzero" transform="translate(47.097656, 84.375468) rotate(-10.000000) translate(-47.097656, -84.375468) "></path>
            </g>
        </g>
    </g>
</svg>